<!DOCTYPE svg PUBLIC "-//W3C//DTD SVG 20010904//EN" "http://www.w3.org/TR/2001/REC-SVG-20010904/DTD/svg10.dtd">
<svg version="1.0" xmlns="http://www.w3.org/2000/svg" width="152px" height="300px" viewBox="0 0 1520 3000" preserveAspectRatio="xMidYMid meet">
<g id="layer101" fill="#010304" stroke="none">
 <path d="M345 2896 c-14 -10 -20 -30 -23 -80 -2 -36 -8 -66 -13 -66 -5 0 -9 -4 -9 -10 0 -5 23 -10 50 -10 28 0 50 5 50 10 0 6 -5 10 -10 10 -7 0 -10 24 -8 63 3 59 4 62 28 62 24 0 25 -3 28 -62 2 -39 -1 -63 -8 -63 -5 0 -10 -4 -10 -10 0 -6 32 -10 75 -10 l76 0 21 48 20 47 20 -47 c19 -46 22 -48 59 -48 22 0 39 5 39 10 0 6 -4 10 -10 10 -6 0 -10 28 -10 64 0 36 5 68 10 71 23 14 7 25 -34 25 -44 0 -66 -12 -46 -25 5 -3 10 -23 9 -43 l-1 -37 -20 48 c-11 26 -24 47 -29 47 -5 0 -20 -21 -33 -47 l-25 -48 -1 37 c0 20 5 40 10 43 16 10 1 25 -25 25 -26 0 -41 -15 -25 -25 5 -3 10 -35 10 -71 0 -57 -2 -64 -20 -64 -18 0 -20 7 -20 60 0 47 -4 64 -20 80 -23 23 -77 27 -105 6z"/>
 <path d="M779 2895 c-81 -44 -45 -165 49 -165 94 0 136 88 73 151 -33 33 -78 38 -122 14z m80 -19 c19 -22 10 -107 -12 -120 -15 -9 -22 -7 -38 13 -23 28 -25 69 -3 99 17 25 36 28 53 8z"/>
 <path d="M935 2901 c-3 -5 -1 -12 5 -16 13 -8 13 -135 0 -135 -5 0 -10 -4 -10 -10 0 -6 33 -10 80 -10 l80 0 0 30 c0 32 -14 40 -24 15 -3 -8 -17 -15 -31 -15 -18 0 -25 5 -25 20 0 23 18 27 26 5 10 -26 24 -5 24 35 0 43 -15 61 -25 30 -9 -28 -25 -25 -25 5 0 14 5 25 10 25 6 0 10 7 10 15 0 11 -12 15 -44 15 -25 0 -47 -4 -51 -9z"/>
 <path d="M1133 2890 c-39 -23 -50 -59 -33 -101 19 -45 48 -60 114 -58 l56 2 0 34 c0 38 -9 42 -28 13 -8 -13 -23 -20 -42 -20 -37 0 -56 38 -43 85 10 34 46 45 83 25 31 -17 39 -2 11 21 -30 24 -77 24 -118 -1z"/>
 <path d="M707 2563 c-4 -3 -7 -21 -7 -40 0 -30 -5 -35 -60 -63 -40 -20 -75 -30 -107 -30 -65 -1 -147 -30 -151 -53 -3 -17 0 -18 30 -12 l33 8 -44 -34 c-49 -37 -62 -59 -35 -59 14 0 12 -5 -9 -26 -14 -14 -23 -32 -21 -39 3 -8 -8 -42 -24 -77 -44 -90 -55 -147 -50 -241 3 -66 11 -97 36 -150 59 -127 200 -237 325 -253 l47 -7 0 -58 0 -59 -53 6 c-57 7 -167 -17 -167 -36 0 -6 29 -9 69 -8 44 2 74 -1 82 -9 9 -9 3 -13 -27 -18 -22 -4 -70 -15 -107 -26 -99 -29 -85 -45 39 -42 82 2 92 0 59 -8 -92 -22 -145 -40 -145 -49 0 -6 30 -10 68 -10 37 0 84 -3 105 -6 37 -7 37 -7 22 -31 -21 -31 -4 -56 31 -47 23 6 24 5 24 -60 l0 -66 -50 0 c-38 0 -50 -4 -50 -15 0 -13 -23 -15 -150 -15 -143 0 -150 -1 -150 -20 0 -19 7 -20 144 -20 l144 0 -14 -52 c-21 -80 -17 -87 21 -44 19 22 35 34 35 28 0 -6 5 -23 11 -39 l10 -28 25 40 24 40 0 -202 0 -203 30 0 30 0 0 189 c0 175 9 238 24 176 8 -33 22 -32 33 2 l9 26 23 -31 c35 -49 44 -41 36 33 l-7 65 41 0 c22 0 41 -2 41 -4 0 -2 -9 -23 -20 -47 -11 -24 -20 -59 -20 -77 0 -44 -25 -102 -44 -102 -9 0 -16 7 -16 15 0 8 -4 15 -10 15 -6 0 -10 -31 -10 -72 0 -65 -3 -76 -25 -97 -14 -13 -25 -29 -25 -37 0 -20 27 -17 39 3 8 15 10 11 11 -19 0 -20 -4 -48 -10 -63 -8 -20 -6 -34 7 -58 15 -29 17 -30 24 -12 4 11 6 56 2 100 -4 66 -3 78 8 67 18 -17 49 -15 49 4 0 9 -13 21 -30 27 -26 10 -30 16 -30 50 0 37 0 38 22 23 34 -24 65 -20 85 12 9 15 25 37 36 49 11 13 16 27 11 35 -4 7 -4 10 1 6 4 -4 20 -1 36 7 41 22 69 19 138 -16 34 -17 64 -29 67 -26 6 6 -34 129 -47 141 -14 15 -11 42 6 56 26 21 17 33 -20 26 -31 -6 -35 -4 -35 14 0 19 -6 20 -140 20 -116 0 -142 3 -146 15 -5 11 -21 15 -60 15 l-54 0 0 75 0 75 38 18 c20 11 53 25 73 31 51 16 113 73 139 125 21 45 60 190 60 227 0 17 -7 19 -72 19 l-73 0 32 18 c56 30 124 93 158 147 85 133 99 287 37 420 -18 38 -44 84 -58 102 -33 43 -119 107 -167 124 -31 11 -37 17 -32 34 3 11 8 59 12 108 l6 87 -85 0 c-47 0 -88 -3 -91 -7z m163 -1080 c0 -71 -7 -80 -61 -87 -27 -4 -56 -9 -64 -12 -12 -5 -15 4 -15 48 l0 55 63 15 c34 9 65 16 70 17 4 0 7 -16 7 -36z"/>
 <path d="M320 234 c-11 -25 -23 -57 -26 -70 -3 -13 -10 -27 -15 -30 -5 -3 -9 -12 -9 -20 0 -25 65 -14 66 11 1 11 7 34 14 50 l12 30 9 -24 c7 -17 5 -30 -5 -46 -18 -28 -12 -35 29 -35 36 0 49 8 36 24 -5 6 -3 24 4 41 l13 30 8 -30 c4 -16 7 -37 6 -46 -2 -14 8 -17 61 -18 l64 -1 -5 76 c-5 75 -5 76 19 72 21 -3 24 -9 27 -57 2 -30 -2 -59 -7 -64 -18 -18 -12 -27 17 -27 33 0 45 9 33 24 -4 6 -11 38 -14 71 -7 67 -22 85 -72 85 -45 0 -63 -25 -67 -93 -2 -31 -7 -57 -12 -58 -5 0 -21 32 -36 72 -14 40 -31 74 -37 76 -6 2 -18 -15 -26 -39 l-14 -43 -18 43 c-9 23 -21 42 -26 42 -6 0 -19 -21 -29 -46z"/>
 <path d="M696 249 c-30 -35 -32 -58 -11 -98 21 -41 55 -49 195 -47 101 1 124 4 122 15 -2 8 0 28 4 44 l6 31 15 -28 c8 -15 11 -36 8 -47 -6 -17 -3 -20 17 -17 12 2 23 5 22 8 -2 29 -62 170 -70 170 -7 0 -19 -19 -26 -41 l-14 -42 -19 42 c-10 23 -23 40 -28 38 -6 -2 -24 -39 -41 -83 -20 -51 -32 -72 -34 -59 -6 32 -19 39 -31 16 -15 -27 -57 -28 -71 -2 -12 23 -13 71 -2 87 13 19 40 23 59 9 23 -18 33 -18 33 0 0 20 -32 35 -73 35 -27 0 -41 -7 -61 -31z m244 -110 c-11 -19 -30 -26 -30 -10 0 4 5 23 12 41 11 32 12 33 20 11 4 -13 4 -30 -2 -42z"/>
 <path d="M1105 255 c-38 -37 -35 -95 7 -130 26 -22 39 -26 66 -21 44 7 70 31 78 71 6 35 -8 71 -35 92 -28 22 -89 16 -116 -12z m83 -7 c13 -13 16 -75 6 -102 -10 -26 -43 -19 -55 11 -9 23 -5 74 8 96 6 11 27 9 41 -5z"/>
 </g>
<g id="layer102" fill="#444240" stroke="none">
 <path d="M348 2899 c-10 -5 -18 -15 -18 -20 0 -6 7 -3 16 5 9 9 31 16 52 15 21 -1 29 -3 17 -6 -33 -8 -37 -19 -7 -18 26 0 27 -2 30 -62 2 -39 -1 -63 -8 -63 -5 0 -10 -4 -10 -10 0 -6 32 -10 75 -10 65 0 76 3 85 21 7 11 9 23 7 26 -3 2 -8 -5 -12 -16 -4 -14 -15 -21 -33 -21 -27 0 -27 0 -24 65 2 42 -1 71 -8 80 -10 13 -8 15 16 15 19 0 25 -3 16 -9 -9 -5 -12 -25 -10 -62 l3 -54 18 32 c20 38 23 59 2 23 l-14 -25 -1 37 c0 20 5 40 10 43 16 10 1 25 -25 25 -26 0 -41 -15 -25 -25 5 -3 10 -35 10 -69 0 -58 -2 -64 -22 -70 -41 -11 -43 -8 -40 54 3 40 -1 66 -10 77 -11 15 -11 16 7 10 20 -7 20 -7 1 8 -23 17 -73 19 -98 4z"/>
 <path d="M635 2901 c-3 -5 -1 -12 5 -16 13 -8 13 -61 0 -85 -7 -13 -6 -27 2 -44 9 -21 18 -26 50 -26 21 0 38 4 38 8 0 5 -14 6 -32 4 -22 -3 -35 0 -45 14 -15 21 -17 38 -3 29 6 -4 10 15 10 49 0 34 -5 56 -12 59 -7 3 7 6 31 6 40 1 42 0 30 -16 -13 -16 -12 -17 4 -4 9 7 17 17 17 22 0 12 -87 12 -95 0z"/>
 <path d="M837 2901 c23 -4 51 -14 61 -22 10 -8 7 -4 -6 9 -16 15 -34 22 -60 21 l-37 -2 42 -6z"/>
 <path d="M935 2901 c-3 -5 -1 -12 5 -16 13 -8 13 -135 0 -135 -5 0 -10 -4 -10 -10 0 -6 33 -9 83 -8 l82 2 -70 3 -70 4 3 74 c3 57 0 75 -10 77 -7 0 10 4 37 8 l50 7 -47 1 c-26 1 -49 -2 -53 -7z"/>
 <path d="M1195 2900 c39 -6 39 -6 10 -11 l-30 -4 32 -6 c19 -3 30 -2 26 4 -3 5 0 7 8 5 8 -3 13 -11 12 -17 -2 -6 2 -11 7 -11 17 0 11 18 -12 34 -12 9 -38 15 -58 15 l-35 -2 40 -7z"/>
 <path d="M601 2895 c0 -5 6 -21 14 -35 8 -14 14 -20 14 -15 0 6 -6 21 -14 35 -8 14 -14 21 -14 15z"/>
 <path d="M745 2860 c-8 -16 -15 -37 -14 -47 0 -12 3 -9 8 8 5 14 14 35 20 47 6 12 9 22 7 22 -3 0 -12 -13 -21 -30z"/>
 <path d="M1106 2868 c-9 -12 -16 -34 -15 -48 1 -22 2 -21 9 7 4 18 13 40 20 48 7 8 10 15 7 15 -3 0 -13 -10 -21 -22z"/>
 <path d="M463 2810 c0 -36 2 -50 4 -32 2 17 2 47 0 65 -2 17 -4 3 -4 -33z"/>
 <path d="M1045 2820 c0 -26 3 -46 8 -43 4 2 7 22 7 43 0 21 -3 41 -7 43 -5 3 -8 -17 -8 -43z"/>
 <path d="M321 2808 c0 -32 -5 -58 -11 -58 -5 0 -10 -4 -10 -10 0 -5 23 -10 50 -10 28 0 50 4 50 9 0 5 -17 7 -38 4 l-37 -5 3 45 c2 25 2 53 -1 63 -3 11 -5 -7 -6 -38z"/>
 <path d="M373 2810 c0 -30 2 -43 4 -27 2 15 2 39 0 55 -2 15 -4 2 -4 -28z"/>
 <path d="M872 2820 c0 -19 2 -27 5 -17 2 9 2 25 0 35 -3 9 -5 1 -5 -18z"/>
 <path d="M1242 2779 c-10 -16 -21 -20 -47 -17 -18 2 -31 0 -29 -4 9 -14 61 -8 75 8 12 14 14 14 20 -3 6 -14 7 -11 6 10 -2 32 -8 34 -25 6z"/>
 <path d="M1066 2775 c-3 -8 -18 -16 -33 -16 -25 -2 -25 -2 -5 -6 13 -3 29 0 37 7 10 8 14 8 18 -2 3 -7 4 -3 4 10 -1 25 -12 29 -21 7z"/>
 <path d="M773 2748 c13 -12 34 -18 61 -17 l41 2 -46 6 c-26 4 -53 11 -61 16 -8 6 -5 2 5 -7z"/>
 <path d="M1133 2748 c11 -10 27 -18 36 -17 10 0 7 4 -8 10 -14 5 -30 13 -36 17 -6 4 -2 -1 8 -10z"/>
 <path d="M704 2555 c-4 -8 -4 -28 -2 -45 2 -16 2 -28 -2 -27 -11 4 -90 -36 -90 -45 0 -5 -4 -6 -10 -3 -5 3 -10 2 -10 -2 0 -5 -16 -7 -36 -5 -43 5 -147 -16 -139 -28 3 -4 -3 -7 -12 -6 -10 0 -19 -7 -21 -17 -3 -17 0 -18 30 -12 l33 8 -44 -34 c-50 -38 -62 -59 -34 -59 17 -1 17 -1 -1 -15 -11 -8 -16 -15 -11 -15 5 0 1 -6 -9 -13 -36 -26 15 -16 69 14 78 43 108 46 50 6 -62 -43 -99 -82 -91 -96 4 -7 1 -8 -9 -5 -11 5 -22 -8 -40 -48 -25 -56 -47 -146 -39 -160 3 -5 41 -8 84 -8 79 0 80 0 85 28 3 15 10 47 16 72 24 94 25 88 -20 106 -23 9 -41 20 -41 25 0 11 13 12 26 1 5 -5 21 -13 36 -20 26 -11 29 -10 47 27 11 21 18 41 15 43 -3 3 4 8 15 11 20 5 19 3 -4 -37 -14 -24 -25 -47 -25 -53 0 -12 55 -29 123 -39 l49 -7 -3 54 c-2 34 1 54 9 57 8 2 12 -13 12 -52 l0 -56 38 0 c35 0 144 24 163 36 12 7 -17 63 -54 101 -24 26 -36 31 -56 27 l-26 -6 23 17 c12 9 26 14 31 10 6 -3 25 1 43 9 l33 14 -34 14 c-21 10 -29 18 -22 22 7 5 9 17 5 28 -4 15 -3 18 6 13 10 -6 12 -1 8 19 -3 14 -2 29 3 31 4 3 7 34 6 70 l-1 65 -83 0 c-65 0 -85 -3 -89 -15z"/>
 <path d="M913 2325 c27 -13 56 -30 65 -37 15 -11 15 -11 4 4 -13 16 -94 59 -109 57 -5 0 14 -11 40 -24z"/>
 <path d="M910 2292 c-65 -22 -63 -16 -26 -71 19 -28 36 -56 38 -63 5 -14 47 1 88 32 l25 19 -30 31 c-36 38 -74 59 -95 52z"/>
 <path d="M1030 2245 c19 -22 43 -51 53 -65 17 -24 17 -24 0 8 -10 18 -33 47 -52 65 l-35 32 34 -40z"/>
 <path d="M1000 2165 c-19 -14 -40 -25 -47 -25 -16 0 -16 -7 2 -77 8 -31 15 -72 15 -90 l0 -33 80 0 80 0 0 35 c0 64 -63 216 -88 215 -4 -1 -23 -12 -42 -25z"/>
 <path d="M315 2149 c-9 -17 -15 -33 -13 -35 3 -2 12 12 21 31 21 43 13 47 -8 4z"/>
 <path d="M495 2086 c-8 -19 -18 -60 -21 -90 l-7 -56 112 0 111 0 0 75 0 75 -33 0 c-19 0 -56 7 -83 15 -65 20 -63 20 -79 -19z"/>
 <path d="M872 2109 c-13 -5 -55 -12 -93 -15 l-69 -7 0 -74 0 -74 123 3 122 3 -2 54 c-5 108 -24 133 -81 110z"/>
 <path d="M1122 2105 c0 -5 6 -26 13 -45 7 -19 14 -28 14 -20 0 8 -6 29 -14 45 -7 17 -13 26 -13 20z"/>
 <path d="M266 2019 c-3 -17 -5 -46 -5 -63 1 -18 5 -7 10 28 9 63 6 88 -5 35z"/>
 <path d="M1152 1949 c-1 -42 -9 -98 -17 -124 -8 -27 -12 -51 -10 -53 12 -13 36 114 32 180 l-3 73 -2 -76z"/>
 <path d="M286 1878 c9 -55 40 -141 62 -168 l17 -21 58 31 c31 17 57 34 57 36 0 3 -4 24 -9 47 -6 23 -13 59 -16 80 l-6 37 -85 0 -84 0 6 -42z"/>
 <path d="M470 1878 c0 -24 5 -60 11 -82 10 -35 13 -37 37 -32 15 4 60 12 100 18 l72 12 0 63 0 63 -110 0 -110 0 0 -42z"/>
 <path d="M710 1856 l0 -64 73 -12 c39 -6 84 -14 100 -17 24 -5 29 -1 42 31 9 20 18 57 22 81 l6 45 -122 0 -121 0 0 -64z"/>
 <path d="M967 1913 c-4 -3 -7 -18 -7 -32 -1 -14 -9 -50 -19 -79 l-18 -53 59 -29 c33 -17 63 -30 67 -30 15 0 72 133 78 181 l6 49 -80 0 c-44 0 -83 -3 -86 -7z"/>
 <path d="M590 1766 c-89 -16 -94 -20 -74 -59 9 -18 27 -46 40 -64 22 -28 27 -31 66 -26 24 3 46 8 49 12 4 3 10 39 13 79 8 82 15 78 -94 58z"/>
 <path d="M710 1750 c0 -16 5 -30 10 -30 6 0 10 -22 10 -49 0 -48 0 -48 37 -54 27 -5 42 -2 56 11 25 22 77 104 71 113 -4 8 -76 25 -141 33 -42 6 -43 6 -43 -24z"/>
 <path d="M428 1710 c-20 -11 -40 -25 -43 -31 -8 -13 27 -53 70 -79 27 -17 37 -18 68 -8 20 6 37 14 37 18 0 15 -75 120 -85 120 -5 -1 -27 -10 -47 -20z"/>
 <path d="M871 1669 c-23 -34 -41 -63 -41 -65 0 -2 7 -4 15 -4 9 0 29 -7 44 -15 27 -14 31 -13 67 14 52 38 77 67 69 81 -8 14 -80 50 -99 50 -8 0 -33 -28 -55 -61z"/>
 <path d="M319 1703 c6 -12 32 -44 58 -71 34 -34 38 -37 13 -8 -19 23 -46 55 -58 71 -14 18 -19 21 -13 8z"/>
 <path d="M1062 1675 c-17 -24 -59 -65 -93 -90 -34 -25 -58 -45 -54 -45 25 0 137 100 170 153 28 43 12 31 -23 -18z"/>
 <path d="M605 1601 c-5 -9 53 -61 68 -61 4 0 7 16 7 35 0 33 -2 35 -34 35 -19 0 -37 -4 -41 -9z"/>
 <path d="M730 1574 l0 -35 30 21 c36 26 38 36 8 44 -36 9 -38 8 -38 -30z"/>
 <path d="M543 1587 c-43 -13 -41 -21 5 -40 42 -17 112 -32 112 -24 0 2 -19 20 -42 39 -39 31 -46 33 -75 25z"/>
 <path d="M775 1560 c-16 -16 -26 -32 -23 -36 9 -9 117 17 128 32 8 9 2 15 -21 23 -46 16 -52 14 -84 -19z"/>
 <path d="M447 1567 c11 -18 129 -67 176 -73 l47 -7 0 -58 c0 -46 -3 -58 -17 -62 -14 -4 -12 -5 5 -6 21 -1 22 3 22 68 l0 68 -52 6 c-29 4 -83 21 -120 40 -36 18 -64 29 -61 24z"/>
 <path d="M880 1528 c0 -4 37 -7 83 -7 92 1 86 6 -15 11 -38 2 -68 0 -68 -4z"/>
 <path d="M1026 1474 c-4 -20 -5 -38 -3 -40 3 -3 8 11 11 32 4 20 5 38 3 40 -3 3 -8 -11 -11 -32z"/>
 <path d="M724 1486 c-3 -7 -4 -33 -1 -57 l4 -44 1 52 c2 45 5 52 25 56 l22 4 -23 2 c-12 0 -25 -5 -28 -13z"/>
 <path d="M860 1417 c0 -10 -11 -17 -32 -20 l-33 -4 33 -1 c31 -2 54 19 38 35 -3 4 -6 -1 -6 -10z"/>
 <path d="M563 1373 c15 -2 37 -2 50 0 12 2 0 4 -28 4 -27 0 -38 -2 -22 -4z"/>
 <path d="M1001 1368 c0 -9 -4 -25 -7 -35 -5 -17 -5 -17 6 0 6 10 9 25 7 35 -4 15 -5 15 -6 0z"/>
 <path d="M710 1244 l0 -126 44 48 c25 27 70 76 100 110 59 64 65 74 42 74 -12 0 -37 -25 -131 -135 l-34 -40 -1 98 c0 58 -4 97 -10 97 -6 0 -10 -49 -10 -126z"/>
 <path d="M463 1353 c-26 -10 -12 -19 30 -20 36 0 37 0 8 4 -26 3 -31 7 -20 14 15 9 3 11 -18 2z"/>
 <path d="M680 1255 c0 -81 -3 -97 -17 -102 -9 -4 -19 -1 -21 5 -2 7 -18 11 -35 11 -31 -2 -31 -2 -4 -6 15 -2 25 -8 22 -13 -3 -5 3 -11 12 -13 10 -3 28 -8 41 -12 22 -6 22 -6 22 109 0 71 -4 116 -10 116 -6 0 -10 -38 -10 -95z"/>
 <path d="M590 1328 c24 -10 24 -10 5 -18 -15 -6 -16 -9 -4 -9 9 -1 19 2 22 6 10 9 -13 33 -32 32 -10 0 -7 -4 9 -11z"/>
 <path d="M465 1280 c-13 -5 -14 -9 -5 -9 8 0 24 4 35 9 13 5 14 9 5 9 -8 0 -24 -4 -35 -9z"/>
 <path d="M483 1243 c20 -2 54 -2 75 0 20 2 3 4 -38 4 -41 0 -58 -2 -37 -4z"/>
 <path d="M916 1215 c-21 -19 -59 -41 -85 -50 -25 -8 -61 -24 -79 -35 l-33 -20 3 -78 3 -77 58 -1 57 -1 -55 4 -55 4 0 74 0 75 38 18 c20 11 54 25 74 31 30 10 135 90 118 90 -3 0 -22 -15 -44 -34z"/>
 <path d="M575 1230 l-30 -8 33 -1 c17 0 32 4 32 9 0 6 -1 9 -2 9 -2 -1 -16 -5 -33 -9z"/>
 <path d="M455 1200 c-13 -5 -14 -9 -5 -9 8 0 24 4 35 9 13 5 14 9 5 9 -8 0 -24 -4 -35 -9z"/>
 <path d="M468 1173 c12 -2 30 -2 40 0 9 3 -1 5 -23 4 -22 0 -30 -2 -17 -4z"/>
 <path d="M605 1120 c-8 -12 12 -40 28 -40 6 0 3 6 -8 13 -10 8 -15 19 -11 25 4 7 5 12 2 12 -3 0 -8 -5 -11 -10z"/>
 <path d="M658 1093 c8 -3 12 -27 12 -69 l0 -64 -50 0 c-37 0 -50 -4 -50 -15 0 -12 -26 -15 -147 -18 l-148 -3 153 1 c203 0 197 -18 -9 -25 l-154 -6 147 -2 146 -2 -14 -52 c-16 -63 -17 -81 -4 -73 6 4 7 12 4 18 -4 7 -4 9 1 5 9 -9 37 10 31 21 -2 3 2 11 9 18 10 10 14 5 19 -22 4 -19 12 -37 18 -41 7 -4 8 -3 4 4 -4 7 -3 12 3 12 6 0 17 12 25 28 14 25 15 10 18 -178 l2 -205 6 195 c3 107 8 184 12 171 l7 -24 24 28 24 28 7 -26 c8 -33 24 -35 31 -4 4 13 13 24 20 24 8 0 12 -3 10 -7 -6 -9 24 -50 36 -50 5 0 9 14 9 30 0 17 -4 30 -8 30 -4 0 -6 16 -4 35 4 33 6 35 43 35 21 0 39 -2 39 -4 0 -2 -9 -23 -20 -47 -11 -24 -20 -59 -20 -77 0 -43 -25 -102 -44 -102 -8 0 -16 -6 -19 -12 -2 -7 -2 -1 0 15 3 15 0 27 -6 27 -7 0 -11 -27 -11 -72 0 -65 -3 -76 -25 -97 -14 -13 -25 -29 -25 -37 0 -20 27 -17 39 4 8 14 10 10 11 -20 0 -20 -4 -48 -10 -63 -8 -20 -6 -34 7 -58 15 -29 17 -30 24 -12 4 11 6 56 2 100 -4 66 -3 78 8 68 18 -18 49 -16 49 2 0 21 -52 45 -58 27 -2 -6 -9 -12 -15 -12 -8 0 -7 4 1 12 7 7 12 29 12 51 0 37 0 38 22 23 34 -24 65 -20 85 12 9 15 25 37 36 49 11 13 16 27 11 35 -4 7 -4 10 1 6 4 -4 20 -1 36 7 41 22 69 19 138 -16 34 -17 64 -29 67 -27 7 8 -26 108 -36 108 -5 0 -7 7 -4 15 4 8 -1 17 -9 21 -17 6 -12 37 9 55 21 17 17 29 -8 28 -20 0 -21 -1 -5 -8 17 -6 17 -8 3 -20 -9 -7 -16 -17 -16 -21 0 -15 -99 -106 -133 -122 -40 -19 -57 -10 -57 34 0 35 48 75 127 105 32 12 52 22 46 22 -7 1 -13 10 -13 20 0 19 -9 20 -145 23 -80 2 -145 0 -145 -4 0 -5 63 -8 140 -8 187 0 184 -18 -4 -22 -79 -2 -144 -1 -144 2 3 40 2 40 -129 42 -71 1 -104 3 -75 5 l52 4 0 75 c0 64 -2 74 -17 73 -11 0 -13 -3 -5 -6z"/>
 <path d="M724 595 c0 -82 2 -115 3 -72 2 43 2 110 0 150 -1 40 -3 5 -3 -78z"/>
 <path d="M321 238 c-21 -51 -36 -95 -28 -88 3 3 15 30 27 60 12 30 27 58 33 62 9 6 9 8 -1 8 -7 0 -21 -19 -31 -42z"/>
 <path d="M537 262 c-10 -11 -17 -40 -19 -77 -2 -43 -7 -59 -16 -57 -8 1 -11 -2 -8 -7 4 -5 -4 -11 -16 -13 -13 -2 9 -4 47 -5 62 0 65 1 25 7 -25 4 -40 8 -33 8 8 1 13 26 15 69 3 61 6 69 28 80 16 8 19 13 9 13 -9 0 -23 -8 -32 -18z"/>
 <path d="M699 253 l-24 -28 25 21 c14 12 32 24 40 27 13 5 13 6 -1 6 -8 1 -26 -11 -40 -26z"/>
 <path d="M981 248 c-6 -17 -9 -33 -7 -35 2 -2 9 10 15 27 6 17 15 29 21 25 5 -3 10 -1 10 4 0 24 -29 9 -39 -21z"/>
 <path d="M577 253 c-10 -9 -9 -133 1 -133 4 0 5 30 4 66 l-4 67 26 -5 c14 -3 23 -1 20 3 -6 11 -38 12 -47 2z"/>
 <path d="M936 245 c11 -31 12 -88 2 -107 -14 -28 -31 -22 -24 10 5 22 4 24 -5 9 -6 -10 -8 -25 -5 -33 5 -12 -1 -15 -26 -12 -24 2 -34 9 -36 23 -6 33 -19 39 -32 14 -11 -23 -10 -23 4 -5 15 19 16 19 16 -7 0 -21 -4 -25 -17 -21 -13 4 -14 3 -5 -3 15 -11 189 -15 195 -5 3 4 0 16 -4 27 -9 18 -9 18 -5 -2 4 -20 0 -23 -30 -23 -34 0 -34 0 -18 25 8 13 13 29 9 36 -4 6 -3 14 3 18 6 4 3 19 -10 41 -10 19 -16 26 -12 15z"/>
 <path d="M1236 245 c3 -11 10 -33 14 -50 7 -27 8 -28 9 -5 0 14 -7 36 -15 50 -10 17 -13 18 -8 5z"/>
 <path d="M632 183 c-1 -28 -6 -55 -12 -58 -19 -12 -10 -25 18 -25 34 0 45 9 33 24 -5 6 -11 32 -14 56 l-4 45 -1 -52 c-1 -33 2 -53 11 -56 6 -3 -1 -6 -17 -6 -23 -1 -26 1 -17 13 7 8 11 35 8 63 l-3 48 -2 -52z"/>
 <path d="M1024 206 c-9 -9 -8 -19 2 -37 8 -15 13 -18 14 -9 0 13 1 13 11 0 8 -11 9 -9 3 10 -11 42 -18 49 -30 36z"/>
 <path d="M1202 190 c0 -19 2 -27 5 -17 2 9 2 25 0 35 -3 9 -5 1 -5 -18z"/>
 <path d="M430 174 c-6 -15 -8 -29 -6 -32 3 -2 8 8 12 23 5 20 9 23 15 13 6 -9 9 -9 9 -1 0 25 -20 23 -30 -3z"/>
 <path d="M1081 168 c-1 -24 56 -68 87 -67 25 1 25 2 -5 9 -39 9 -62 26 -73 55 -7 15 -9 16 -9 3z"/>
 <path d="M463 142 c0 -12 4 -22 8 -22 9 0 21 31 14 38 -3 3 -5 -1 -5 -9 0 -12 -2 -11 -10 1 -7 12 -9 10 -7 -8z"/>
 <path d="M686 147 c4 -10 16 -22 28 -29 18 -9 19 -8 6 3 -8 8 -20 21 -27 29 -11 13 -12 13 -7 -3z"/>
 <path d="M1223 133 c-12 -13 -19 -23 -14 -23 10 0 46 39 40 43 -2 2 -14 -7 -26 -20z"/>
 <path d="M363 131 c-15 -24 -8 -31 33 -31 35 0 52 14 33 26 -8 4 -9 3 -5 -4 5 -8 -4 -12 -30 -12 -31 0 -35 2 -24 15 7 9 11 17 9 20 -3 2 -10 -4 -16 -14z"/>
 <path d="M1036 124 c-9 -23 -8 -24 13 -24 25 0 33 12 19 30 -8 12 -9 12 -4 -2 3 -12 0 -18 -9 -18 -9 0 -12 6 -9 15 4 8 4 15 1 15 -3 0 -8 -7 -11 -16z"/>
 <path d="M283 103 c9 -2 25 -2 35 0 9 3 1 5 -18 5 -19 0 -27 -2 -17 -5z"/>
 </g>
<g id="layer103" fill="#1c4164" stroke="none">
 <path d="M348 2899 c-10 -5 -18 -15 -18 -22 0 -8 3 -7 9 2 5 8 29 18 53 21 41 7 41 8 8 8 -19 1 -43 -3 -52 -9z"/>
 <path d="M525 2901 c20 -4 26 -9 18 -14 -8 -5 -13 -29 -13 -58 0 -28 4 -48 9 -45 5 3 7 24 4 46 -3 23 -1 46 6 53 14 18 4 27 -28 26 -25 -1 -24 -2 4 -8z"/>
 <path d="M635 2901 c-3 -5 -1 -13 5 -16 6 -4 10 -26 9 -51 -2 -24 0 -47 4 -50 4 -4 7 18 7 49 0 38 -4 58 -12 59 -7 0 10 4 37 8 l50 7 -47 1 c-26 1 -49 -2 -53 -7z"/>
 <path d="M818 2903 c12 -2 30 -2 40 0 9 3 -1 5 -23 4 -22 0 -30 -2 -17 -4z"/>
 <path d="M937 2903 c-4 -3 -3 -11 3 -17 5 -7 11 -41 13 -76 l3 -65 2 73 c1 51 -2 72 -10 74 -7 0 10 4 37 8 l50 7 -46 1 c-25 1 -49 -1 -52 -5z"/>
 <path d="M1178 2903 c12 -2 30 -2 40 0 9 3 -1 5 -23 4 -22 0 -30 -2 -17 -4z"/>
 <path d="M463 2815 c0 -33 2 -45 4 -27 2 18 2 45 0 60 -2 15 -4 0 -4 -33z"/>
 <path d="M1045 2820 c0 -26 3 -46 8 -43 4 2 7 22 7 43 0 21 -3 41 -7 43 -5 3 -8 -17 -8 -43z"/>
 <path d="M323 2805 c0 -33 2 -45 4 -27 2 18 2 45 0 60 -2 15 -4 0 -4 -33z"/>
 <path d="M443 2805 c0 -33 2 -45 4 -27 2 18 2 45 0 60 -2 15 -4 0 -4 -33z"/>
 <path d="M1235 2771 c-6 -5 -21 -11 -35 -14 l-25 -4 26 -2 c15 0 32 6 39 14 14 16 10 21 -5 6z"/>
 <path d="M300 2738 c0 -5 23 -8 50 -8 28 0 50 3 50 8 0 4 -22 7 -50 7 -27 0 -50 -3 -50 -7z"/>
 <path d="M420 2738 c0 -5 33 -8 74 -8 41 0 77 3 79 8 3 4 -30 7 -74 7 -43 0 -79 -3 -79 -7z"/>
 <path d="M685 2740 l-40 -7 43 -2 c23 0 42 4 42 9 0 6 -1 9 -2 9 -2 -1 -21 -5 -43 -9z"/>
 <path d="M930 2738 c0 -5 37 -7 83 -7 85 2 75 6 -26 11 -31 2 -57 0 -57 -4z"/>
 <path d="M707 2563 c-4 -3 -7 -20 -7 -38 0 -17 -7 -40 -16 -51 -8 -10 -13 -13 -9 -7 4 9 1 11 -9 7 -9 -3 -13 -11 -9 -17 4 -6 0 -8 -10 -4 -10 3 -17 2 -17 -4 0 -6 -4 -8 -9 -5 -5 3 -11 -1 -14 -9 -5 -10 -17 -13 -44 -9 -51 7 -125 -4 -117 -18 4 -6 -1 -8 -16 -3 -16 5 -20 4 -15 -5 4 -7 1 -10 -11 -8 -11 2 -20 -4 -22 -15 -3 -16 0 -18 27 -12 31 7 43 -6 19 -21 -7 -5 -9 -2 -4 7 4 8 0 5 -8 -5 -9 -11 -16 -16 -16 -11 0 5 -11 -2 -25 -15 -24 -23 -35 -47 -16 -35 23 13 20 -17 -3 -39 -36 -33 -6 -29 54 6 42 25 100 46 100 36 0 -3 -22 -19 -50 -37 -53 -34 -93 -78 -84 -92 3 -5 -2 -6 -11 -3 -11 5 -22 -8 -40 -48 -25 -56 -47 -146 -39 -160 3 -5 41 -8 84 -8 79 0 80 0 85 28 3 15 10 47 16 72 23 93 25 86 -27 109 -26 12 -44 24 -41 27 5 5 54 -13 89 -33 4 -2 16 14 28 37 15 28 17 40 8 41 -13 0 19 17 35 18 4 1 -4 -19 -18 -42 -14 -24 -25 -48 -25 -54 0 -12 55 -29 123 -39 l49 -7 -3 54 c-2 34 1 54 9 57 8 2 12 -13 12 -52 l0 -56 38 0 c35 0 144 24 163 36 12 7 -17 63 -54 101 -24 25 -36 31 -56 27 -25 -5 -25 -5 -7 10 11 9 27 14 35 12 9 -3 30 1 46 9 l30 13 -32 13 c-33 14 -40 23 -24 33 5 3 7 16 4 29 -4 18 -3 19 6 7 9 -11 10 -4 5 30 -4 30 -2 40 4 31 6 -9 9 8 8 53 l-1 66 -81 0 c-44 0 -84 -3 -87 -7z m6 -74 c-5 -5 -6 11 -3 34 4 41 5 41 8 8 2 -18 0 -37 -5 -42z m-286 -189 c-27 -22 -37 -25 -37 -12 0 5 10 14 23 20 35 17 42 14 14 -8z m243 -113 c0 -2 -11 -14 -24 -26 -18 -17 -26 -19 -31 -10 -5 7 -4 10 2 6 6 -4 18 2 28 13 17 19 25 24 25 17z"/>
 <path d="M910 2292 c-65 -22 -63 -16 -26 -71 19 -28 36 -56 38 -63 5 -14 47 1 88 32 l25 19 -30 31 c-36 38 -74 59 -95 52z"/>
 <path d="M1030 2245 c19 -19 36 -35 39 -35 3 0 -10 16 -29 35 -19 19 -36 35 -39 35 -3 0 10 -16 29 -35z"/>
 <path d="M1000 2165 c-19 -14 -40 -25 -47 -25 -16 0 -16 -7 2 -77 8 -31 15 -72 15 -90 l0 -33 80 0 80 0 0 35 c0 64 -63 216 -88 215 -4 -1 -23 -12 -42 -25z"/>
 <path d="M315 2149 c-9 -17 -15 -33 -13 -35 3 -2 12 12 21 31 21 43 13 47 -8 4z"/>
 <path d="M495 2086 c-8 -19 -18 -60 -21 -90 l-7 -56 112 0 111 0 0 75 0 75 -33 0 c-19 0 -56 7 -83 15 -65 20 -63 20 -79 -19z"/>
 <path d="M872 2109 c-13 -5 -55 -12 -93 -15 l-69 -7 0 -74 0 -74 123 3 122 3 -2 54 c-5 108 -24 133 -81 110z"/>
 <path d="M1152 1990 c0 -19 2 -27 5 -17 2 9 2 25 0 35 -3 9 -5 1 -5 -18z"/>
 <path d="M286 1878 c9 -55 40 -141 62 -168 l17 -21 58 31 c31 17 57 34 57 36 0 3 -4 24 -9 47 -6 23 -13 59 -16 80 l-6 37 -85 0 -84 0 6 -42z"/>
 <path d="M470 1878 c0 -24 5 -60 11 -82 10 -35 13 -37 37 -32 15 4 60 12 100 18 l72 12 0 63 0 63 -110 0 -110 0 0 -42z"/>
 <path d="M710 1856 l0 -64 73 -12 c39 -6 84 -14 100 -17 24 -5 29 -1 42 31 9 20 18 57 22 81 l6 45 -122 0 -121 0 0 -64z"/>
 <path d="M967 1913 c-4 -3 -7 -18 -7 -32 -1 -14 -9 -50 -19 -79 l-18 -53 59 -29 c33 -17 63 -30 67 -30 15 0 72 133 78 181 l6 49 -80 0 c-44 0 -83 -3 -86 -7z"/>
 <path d="M1152 1890 c0 -19 2 -27 5 -17 2 9 2 25 0 35 -3 9 -5 1 -5 -18z"/>
 <path d="M590 1766 c-89 -16 -94 -20 -74 -59 9 -18 27 -46 40 -64 22 -28 27 -31 66 -26 24 3 46 8 49 12 4 3 10 39 13 79 8 82 15 78 -94 58z"/>
 <path d="M710 1750 c0 -16 5 -30 10 -30 6 0 10 -22 10 -49 0 -48 0 -48 37 -54 27 -5 42 -2 56 11 25 22 77 104 71 113 -4 8 -76 25 -141 33 -42 6 -43 6 -43 -24z"/>
 <path d="M428 1710 c-20 -11 -40 -25 -43 -31 -8 -13 27 -53 70 -79 27 -17 37 -18 68 -8 20 6 37 14 37 18 0 15 -75 120 -85 120 -5 -1 -27 -10 -47 -20z"/>
 <path d="M871 1669 c-23 -34 -41 -63 -41 -65 0 -2 7 -4 15 -4 9 0 29 -7 44 -15 27 -14 31 -13 67 14 52 38 77 67 69 81 -8 14 -80 50 -99 50 -8 0 -33 -28 -55 -61z"/>
 <path d="M1025 1628 l-40 -43 43 40 c39 36 47 45 39 45 -2 0 -21 -19 -42 -42z"/>
 <path d="M385 1620 c21 -22 41 -40 44 -40 3 0 -13 18 -34 40 -21 22 -41 40 -44 40 -3 0 13 -18 34 -40z"/>
 <path d="M605 1601 c-5 -9 53 -61 68 -61 4 0 7 16 7 35 0 33 -2 35 -34 35 -19 0 -37 -4 -41 -9z"/>
 <path d="M730 1574 l0 -35 30 21 c36 26 38 36 8 44 -36 9 -38 8 -38 -30z"/>
 <path d="M543 1587 c-43 -13 -41 -21 5 -40 42 -17 112 -32 112 -24 0 2 -19 20 -42 39 -39 31 -46 33 -75 25z"/>
 <path d="M775 1560 c-16 -16 -26 -32 -23 -36 9 -9 117 17 128 32 8 9 2 15 -21 23 -46 16 -52 14 -84 -19z"/>
 <path d="M883 1528 c-2 -5 33 -7 79 -7 84 2 77 6 -20 11 -30 2 -56 0 -59 -4z"/>
 <path d="M640 1494 c29 -5 30 -7 30 -64 0 -37 -4 -60 -12 -63 -8 -3 -6 -6 5 -6 16 -1 18 7 15 67 l-3 67 -32 3 c-33 2 -33 2 -3 -4z"/>
 <path d="M563 1373 c15 -2 37 -2 50 0 12 2 0 4 -28 4 -27 0 -38 -2 -22 -4z"/>
 <path d="M710 1250 c0 -66 2 -120 4 -120 8 0 63 57 100 105 21 28 52 62 69 77 17 15 27 31 23 35 -11 11 -37 -9 -81 -64 -22 -28 -52 -66 -67 -84 l-27 -34 0 103 c-1 61 -5 102 -11 102 -6 0 -10 -47 -10 -120z"/>
 <path d="M680 1256 c0 -86 -2 -95 -22 -108 -22 -15 -22 -15 10 -20 l32 -5 0 114 c0 69 -4 113 -10 113 -6 0 -10 -38 -10 -94z"/>
 <path d="M488 1243 c17 -2 47 -2 65 0 17 2 3 4 -33 4 -36 0 -50 -2 -32 -4z"/>
 <path d="M575 1230 l-30 -8 33 -1 c17 0 32 4 32 9 0 6 -1 9 -2 9 -2 -1 -16 -5 -33 -9z"/>
 <path d="M455 1200 c-13 -5 -14 -9 -5 -9 8 0 24 4 35 9 13 5 14 9 5 9 -8 0 -24 -4 -35 -9z"/>
 <path d="M603 1163 c16 -3 25 -9 21 -15 -4 -7 -2 -8 5 -4 18 12 2 26 -27 25 l-27 -2 28 -4z"/>
 <path d="M605 1120 c-8 -12 12 -40 28 -40 6 0 3 6 -8 13 -10 8 -15 19 -11 25 4 7 5 12 2 12 -3 0 -8 -5 -11 -10z"/>
 <path d="M668 1030 l4 -70 -51 0 c-39 0 -51 -4 -51 -15 0 -13 -25 -15 -152 -17 l-153 -2 150 -3 c122 -3 152 -1 161 11 5 8 30 16 55 18 l44 3 3 73 c2 39 -1 72 -5 72 -4 0 -7 -31 -5 -70z"/>
 <path d="M758 953 c18 -2 45 -2 60 0 15 2 0 4 -33 4 -33 0 -45 -2 -27 -4z"/>
 <path d="M580 914 c-6 -14 -10 -33 -10 -42 0 -15 -2 -15 -11 -2 -8 11 -9 8 -4 -13 4 -19 2 -26 -5 -22 -5 3 -10 -1 -10 -9 0 -8 5 -18 10 -21 6 -4 7 -11 4 -17 -4 -6 -9 -5 -15 3 -6 10 -8 7 -6 -8 l1 -23 23 22 c26 24 29 32 11 23 -7 -4 -6 -1 3 7 9 7 16 17 17 21 0 5 3 11 6 15 6 6 10 -14 7 -37 -2 -7 2 -10 9 -6 9 5 10 1 6 -13 -4 -11 -2 -23 3 -27 7 -3 8 0 5 10 -4 10 -2 15 7 13 8 -2 13 4 13 14 -1 10 3 15 9 11 6 -4 8 0 4 10 -13 35 14 26 29 -8 l15 -37 22 23 c19 20 22 21 25 6 2 -9 8 -17 13 -17 6 0 7 -4 4 -10 -3 -5 -1 -10 4 -10 6 0 12 6 12 13 1 6 3 19 4 27 1 8 3 21 4 28 0 7 6 10 12 6 8 -5 8 -8 0 -14 -9 -5 -7 -11 5 -21 15 -12 17 -12 9 0 -6 10 -4 12 4 7 7 -5 10 -14 7 -22 -3 -7 0 -16 6 -20 7 -5 8 -2 4 7 -4 8 0 5 8 -5 15 -19 16 -18 16 15 0 26 -3 31 -10 19 -8 -11 -10 -3 -8 30 l3 45 43 3 c23 2 42 1 42 -1 0 -3 -9 -24 -20 -48 -11 -24 -20 -59 -20 -77 0 -44 -25 -102 -44 -102 -24 0 -19 -37 6 -54 30 -21 62 -20 79 2 13 16 13 16 -6 2 -11 -8 -2 4 20 28 38 40 52 76 34 88 -19 11 -8 61 19 87 30 28 106 66 137 68 11 0 14 3 8 6 -7 2 -13 13 -13 23 0 18 -11 19 -145 22 -80 2 -145 0 -145 -4 0 -5 63 -8 140 -8 87 0 140 -4 140 -10 0 -9 -111 -14 -218 -10 -24 1 -50 -4 -58 -10 -12 -10 -14 -7 -14 19 l0 31 -120 0 c-120 0 -121 0 -130 -26z"/>
 <path d="M343 893 c43 -2 110 -2 150 0 40 1 5 3 -78 3 -82 0 -115 -2 -72 -3z"/>
 <path d="M1173 893 c9 -2 14 -9 11 -15 -4 -7 -2 -8 4 -4 20 12 13 26 -10 25 -18 -1 -19 -2 -5 -6z"/>
 <path d="M1106 790 c-54 -55 -57 -60 -34 -60 14 0 52 -13 84 -30 65 -33 74 -35 74 -19 0 5 -4 8 -9 5 -4 -3 -6 6 -3 19 2 14 0 25 -7 25 -5 0 -8 7 -5 15 4 8 1 15 -6 15 -6 0 -8 5 -5 10 3 6 2 10 -4 10 -6 0 -8 7 -5 15 4 8 -1 17 -9 21 -9 3 -13 12 -10 20 8 22 2 17 -61 -46z"/>
 <path d="M674 625 c0 -110 2 -156 3 -103 2 53 2 143 0 200 -1 57 -3 13 -3 -97z"/>
 <path d="M810 615 c0 -58 -4 -77 -15 -81 -8 -4 -13 -10 -10 -14 3 -4 -2 -10 -10 -14 -8 -3 -15 -13 -15 -21 0 -15 1 -15 16 -1 24 25 32 19 35 -28 2 -25 0 -42 -5 -38 -5 3 -7 -2 -3 -11 3 -9 1 -17 -5 -19 -7 -3 -5 -15 6 -36 17 -32 33 -45 22 -17 -3 8 -1 15 5 15 7 0 8 28 4 83 -6 68 -5 80 6 70 18 -18 49 -16 49 2 0 22 -38 39 -56 24 -18 -15 -31 -4 -16 14 12 14 12 147 0 147 -5 0 -8 -34 -8 -75z"/>
 <path d="M537 262 c-10 -11 -17 -40 -19 -77 -2 -43 -7 -59 -16 -57 -8 1 -11 -2 -8 -7 4 -5 -4 -11 -16 -13 -13 -2 9 -4 47 -5 58 0 62 1 25 6 -28 4 -40 9 -32 14 7 5 12 30 12 64 0 38 5 62 17 75 9 10 14 18 11 18 -3 0 -12 -8 -21 -18z"/>
 <path d="M577 253 c-10 -9 -9 -133 1 -133 4 0 5 30 4 66 l-4 67 26 -5 c14 -3 23 -1 20 3 -6 11 -38 12 -47 2z"/>
 <path d="M652 173 c-1 -33 2 -53 11 -56 6 -3 -1 -6 -16 -6 -19 -1 -26 3 -21 11 4 7 3 8 -4 4 -21 -13 -13 -26 16 -26 34 0 45 9 33 24 -5 6 -11 32 -14 56 l-4 45 -1 -52z"/>
 <path d="M814 159 c-4 -8 -3 -9 4 -5 8 5 12 -2 12 -18 0 -20 -4 -24 -17 -20 -13 4 -14 3 -5 -3 15 -11 189 -15 195 -5 3 4 0 16 -4 27 -9 18 -9 18 -5 -2 4 -20 0 -23 -32 -23 -28 0 -33 3 -24 12 7 7 12 16 12 22 0 5 -7 1 -15 -10 -13 -17 -16 -17 -26 -4 -9 13 -10 12 -5 -2 4 -15 -1 -18 -29 -18 -30 0 -35 3 -35 24 0 28 -15 42 -26 25z"/>
 <path d="M1223 133 c-12 -13 -19 -23 -14 -23 10 0 46 39 40 43 -2 2 -14 -7 -26 -20z"/>
 <path d="M424 122 c5 -8 -5 -13 -31 -14 l-38 -1 34 -4 c36 -5 61 9 40 22 -8 5 -10 4 -5 -3z"/>
 <path d="M283 103 c9 -2 25 -2 35 0 9 3 1 5 -18 5 -19 0 -27 -2 -17 -5z"/>
 </g>
<g id="layer104" fill="#60605f" stroke="none">
 <path d="M348 2899 c-10 -5 -18 -15 -18 -22 0 -8 3 -7 9 2 5 8 29 18 53 21 41 7 41 8 8 8 -19 1 -43 -3 -52 -9z"/>
 <path d="M525 2901 c20 -4 26 -9 18 -14 -8 -5 -13 -29 -13 -58 0 -28 4 -48 9 -45 5 3 7 24 4 46 -3 23 -1 46 6 53 14 18 4 27 -28 26 -25 -1 -24 -2 4 -8z"/>
 <path d="M635 2901 c-3 -5 -1 -13 5 -16 6 -4 10 -26 9 -51 -2 -24 0 -47 4 -50 4 -4 7 18 7 49 0 38 -4 58 -12 59 -7 0 10 4 37 8 l50 7 -47 1 c-26 1 -49 -2 -53 -7z"/>
 <path d="M818 2903 c12 -2 30 -2 40 0 9 3 -1 5 -23 4 -22 0 -30 -2 -17 -4z"/>
 <path d="M937 2903 c-4 -3 -3 -11 3 -17 5 -7 11 -41 13 -76 l3 -65 2 73 c1 51 -2 72 -10 74 -7 0 10 4 37 8 l50 7 -46 1 c-25 1 -49 -1 -52 -5z"/>
 <path d="M1178 2903 c12 -2 30 -2 40 0 9 3 -1 5 -23 4 -22 0 -30 -2 -17 -4z"/>
 <path d="M463 2815 c0 -33 2 -45 4 -27 2 18 2 45 0 60 -2 15 -4 0 -4 -33z"/>
 <path d="M1045 2820 c0 -26 3 -46 8 -43 4 2 7 22 7 43 0 21 -3 41 -7 43 -5 3 -8 -17 -8 -43z"/>
 <path d="M323 2805 c0 -33 2 -45 4 -27 2 18 2 45 0 60 -2 15 -4 0 -4 -33z"/>
 <path d="M443 2805 c0 -33 2 -45 4 -27 2 18 2 45 0 60 -2 15 -4 0 -4 -33z"/>
 <path d="M1235 2771 c-6 -5 -21 -11 -35 -14 l-25 -4 26 -2 c15 0 32 6 39 14 14 16 10 21 -5 6z"/>
 <path d="M300 2738 c0 -5 23 -8 50 -8 28 0 50 3 50 8 0 4 -22 7 -50 7 -27 0 -50 -3 -50 -7z"/>
 <path d="M420 2738 c0 -5 33 -8 74 -8 41 0 77 3 79 8 3 4 -30 7 -74 7 -43 0 -79 -3 -79 -7z"/>
 <path d="M685 2740 l-40 -7 43 -2 c23 0 42 4 42 9 0 6 -1 9 -2 9 -2 -1 -21 -5 -43 -9z"/>
 <path d="M930 2738 c0 -5 37 -7 83 -7 85 2 75 6 -26 11 -31 2 -57 0 -57 -4z"/>
 <path d="M707 2563 c-4 -3 -7 -20 -7 -38 0 -17 -7 -40 -16 -51 -8 -10 -13 -13 -9 -7 4 9 1 11 -9 7 -9 -3 -13 -11 -9 -17 4 -6 0 -8 -10 -4 -10 3 -17 2 -17 -4 0 -6 -4 -8 -9 -5 -5 3 -11 -1 -14 -9 -5 -10 -17 -13 -44 -9 -51 7 -125 -4 -117 -18 4 -6 -1 -8 -16 -3 -16 5 -20 4 -15 -5 4 -7 1 -10 -11 -8 -11 2 -20 -4 -22 -15 -3 -16 0 -18 27 -12 31 7 43 -6 19 -21 -7 -5 -9 -2 -4 7 4 8 0 5 -8 -5 -9 -11 -16 -16 -16 -11 0 5 -11 -2 -25 -15 -24 -23 -35 -47 -16 -35 23 13 20 -17 -3 -39 -36 -33 -6 -29 54 6 42 25 100 46 100 36 0 -3 -22 -19 -50 -37 -45 -29 -95 -79 -87 -87 2 -2 28 8 58 22 59 29 125 54 142 54 5 0 3 -8 -5 -17 -9 -10 -23 -32 -32 -50 l-16 -31 32 -11 c17 -6 56 -14 85 -18 l53 -6 0 43 0 44 -28 -27 c-29 -28 -47 -34 -56 -19 -3 5 11 33 31 62 25 37 30 51 18 47 -9 -4 -29 -9 -43 -12 -20 -4 -17 -1 8 8 19 8 46 18 60 22 l25 7 -21 -23 c-25 -28 -64 -90 -64 -102 0 -5 21 9 48 31 26 22 70 54 98 71 54 32 90 87 86 126 -2 17 -1 17 8 5 7 -11 9 -3 4 30 -4 30 -2 40 4 31 6 -9 9 8 8 53 l-1 66 -81 0 c-44 0 -84 -3 -87 -7z m6 -74 c-5 -5 -6 11 -3 34 4 41 5 41 8 8 2 -18 0 -37 -5 -42z m-286 -189 c-27 -22 -37 -25 -37 -12 0 5 10 14 23 20 35 17 42 14 14 -8z"/>
 <path d="M840 2315 c-18 -21 -6 -29 27 -18 27 9 28 10 7 21 -18 9 -24 9 -34 -3z"/>
 <path d="M883 2280 c-22 -9 -22 -9 14 -70 l36 -60 41 24 c58 34 57 40 -2 89 -35 28 -52 32 -89 17z"/>
 <path d="M1030 2245 c19 -19 36 -35 39 -35 3 0 -10 16 -29 35 -19 19 -36 35 -39 35 -3 0 10 -16 29 -35z"/>
 <path d="M785 2253 c-11 -3 -32 -14 -47 -25 -24 -17 -28 -26 -28 -69 l0 -49 48 0 c50 0 152 26 152 38 -1 10 -21 42 -49 80 -24 31 -35 35 -76 25z"/>
 <path d="M475 2196 l-50 -22 34 -12 c19 -7 35 -12 37 -12 6 0 36 62 32 65 -2 2 -26 -6 -53 -19z"/>
 <path d="M315 2149 c-9 -17 -15 -33 -13 -35 3 -2 12 12 21 31 21 43 13 47 -8 4z"/>
 <path d="M990 2152 l-46 -27 12 -40 c7 -22 13 -61 13 -87 l1 -48 80 0 81 0 -6 38 c-14 82 -62 193 -82 191 -5 0 -28 -12 -53 -27z"/>
 <path d="M370 2151 c-28 -8 -62 -81 -75 -158 l-7 -43 80 0 80 0 7 46 c3 25 13 64 21 86 8 23 13 42 12 42 -45 21 -80 36 -86 35 -4 -1 -18 -4 -32 -8z"/>
 <path d="M875 2105 c-23 -7 -69 -16 -103 -20 l-62 -7 0 -64 0 -64 120 0 120 0 0 30 c0 37 -19 129 -28 133 -4 2 -25 -2 -47 -8z"/>
 <path d="M499 2084 c-8 -23 -29 -115 -29 -130 0 -2 50 -4 110 -4 l110 0 0 64 0 64 -62 11 c-35 7 -75 14 -90 18 -24 4 -29 1 -39 -23z"/>
 <path d="M1152 1990 c0 -19 2 -27 5 -17 2 9 2 25 0 35 -3 9 -5 1 -5 -18z"/>
 <path d="M295 1873 c9 -58 41 -147 59 -162 11 -9 27 -6 68 15 l54 26 -13 51 c-7 28 -13 66 -13 84 l0 33 -81 0 -81 0 7 -47z"/>
 <path d="M470 1898 c0 -22 16 -99 25 -125 3 -9 12 -10 33 -2 16 5 58 13 93 17 l64 7 3 63 3 62 -111 0 c-107 0 -110 -1 -110 -22z"/>
 <path d="M717 1913 c-13 -12 -8 -113 6 -117 6 -2 41 -8 77 -14 36 -6 75 -14 86 -17 19 -6 24 0 37 42 9 26 19 63 22 81 l7 32 -115 0 c-62 0 -117 -3 -120 -7z"/>
 <path d="M957 1847 c-10 -39 -19 -77 -20 -84 -1 -6 24 -25 56 -41 l58 -29 26 51 c28 54 56 154 47 168 -3 4 -38 8 -77 8 l-72 0 -18 -73z"/>
 <path d="M1152 1890 c0 -19 2 -27 5 -17 2 9 2 25 0 35 -3 9 -5 1 -5 -18z"/>
 <path d="M570 1758 c-25 -5 -49 -14 -54 -18 -9 -9 32 -88 58 -109 10 -9 29 -11 56 -6 40 7 40 7 40 50 0 24 5 47 10 50 6 3 10 15 10 26 0 16 -7 19 -37 18 -21 -1 -58 -6 -83 -11z"/>
 <path d="M710 1751 c0 -11 5 -23 10 -26 6 -3 10 -26 10 -50 0 -30 5 -45 16 -49 29 -11 67 -6 81 12 37 46 64 95 56 102 -9 9 -114 30 -150 30 -16 0 -23 -6 -23 -19z"/>
 <path d="M438 1710 c-52 -28 -54 -37 -17 -76 40 -41 69 -51 108 -34 l29 11 -34 51 c-19 27 -34 54 -34 59 0 13 -10 11 -52 -11z"/>
 <path d="M880 1677 c-19 -28 -36 -55 -38 -59 -2 -4 14 -14 35 -23 45 -19 62 -12 118 44 l36 37 -55 27 c-30 15 -56 27 -58 27 -2 0 -19 -24 -38 -53z"/>
 <path d="M1025 1628 l-40 -43 43 40 c39 36 47 45 39 45 -2 0 -21 -19 -42 -42z"/>
 <path d="M385 1620 c21 -22 41 -40 44 -40 3 0 -13 18 -34 40 -21 22 -41 40 -44 40 -3 0 13 -18 34 -40z"/>
 <path d="M620 1592 c0 -10 33 -42 43 -42 4 0 7 11 7 25 0 20 -5 25 -25 25 -14 0 -25 -4 -25 -8z"/>
 <path d="M730 1568 l0 -31 25 23 c14 13 25 27 25 32 0 4 -11 8 -25 8 -21 0 -25 -5 -25 -32z"/>
 <path d="M535 1576 c-17 -12 -14 -14 30 -30 72 -24 84 -21 50 14 -32 33 -52 37 -80 16z"/>
 <path d="M781 1556 l-34 -35 55 13 c78 18 87 26 48 42 -18 8 -33 14 -34 14 -1 0 -17 -15 -35 -34z"/>
 <path d="M883 1528 c-2 -5 33 -7 79 -7 84 2 77 6 -20 11 -30 2 -56 0 -59 -4z"/>
 <path d="M640 1494 c29 -5 30 -7 30 -64 0 -37 -4 -60 -12 -63 -8 -3 -6 -6 5 -6 16 -1 18 7 15 67 l-3 67 -32 3 c-33 2 -33 2 -3 -4z"/>
 <path d="M563 1373 c15 -2 37 -2 50 0 12 2 0 4 -28 4 -27 0 -38 -2 -22 -4z"/>
 <path d="M710 1250 c0 -66 2 -120 4 -120 8 0 63 57 100 105 21 28 52 62 69 77 17 15 27 31 23 35 -11 11 -37 -9 -81 -64 -22 -28 -52 -66 -67 -84 l-27 -34 0 103 c-1 61 -5 102 -11 102 -6 0 -10 -47 -10 -120z"/>
 <path d="M680 1256 c0 -86 -2 -95 -22 -108 -22 -15 -22 -15 10 -20 l32 -5 0 114 c0 69 -4 113 -10 113 -6 0 -10 -38 -10 -94z"/>
 <path d="M488 1243 c17 -2 47 -2 65 0 17 2 3 4 -33 4 -36 0 -50 -2 -32 -4z"/>
 <path d="M575 1230 l-30 -8 33 -1 c17 0 32 4 32 9 0 6 -1 9 -2 9 -2 -1 -16 -5 -33 -9z"/>
 <path d="M455 1200 c-13 -5 -14 -9 -5 -9 8 0 24 4 35 9 13 5 14 9 5 9 -8 0 -24 -4 -35 -9z"/>
 <path d="M603 1163 c16 -3 25 -9 21 -15 -4 -7 -2 -8 5 -4 18 12 2 26 -27 25 l-27 -2 28 -4z"/>
 <path d="M605 1120 c-8 -12 12 -40 28 -40 6 0 3 6 -8 13 -10 8 -15 19 -11 25 4 7 5 12 2 12 -3 0 -8 -5 -11 -10z"/>
 <path d="M668 1030 l4 -70 -51 0 c-39 0 -51 -4 -51 -15 0 -13 -25 -15 -152 -17 l-153 -2 150 -3 c122 -3 152 -1 161 11 5 8 30 16 55 18 l44 3 3 73 c2 39 -1 72 -5 72 -4 0 -7 -31 -5 -70z"/>
 <path d="M758 953 c18 -2 45 -2 60 0 15 2 0 4 -33 4 -33 0 -45 -2 -27 -4z"/>
 <path d="M580 914 c-6 -14 -10 -33 -10 -42 0 -15 -2 -15 -11 -2 -8 11 -9 8 -4 -13 4 -19 2 -26 -5 -22 -5 3 -10 -1 -10 -9 0 -8 5 -18 10 -21 6 -4 7 -11 4 -17 -4 -6 -9 -5 -15 3 -6 10 -8 7 -6 -8 l1 -23 23 22 c26 24 29 32 11 23 -7 -4 -6 -1 3 7 9 7 16 17 17 21 0 5 3 11 6 15 6 6 10 -14 7 -37 -2 -7 2 -10 9 -6 9 5 10 1 6 -13 -4 -11 -2 -23 3 -27 7 -3 8 0 5 10 -4 10 -2 15 7 13 8 -2 13 4 13 14 -1 10 3 15 9 11 6 -4 8 0 4 10 -13 35 14 26 29 -8 l15 -37 22 23 c19 20 22 21 25 6 2 -9 8 -17 13 -17 6 0 7 -4 4 -10 -3 -5 -1 -10 4 -10 6 0 12 6 12 13 1 6 3 19 4 27 1 8 3 21 4 28 0 7 6 10 12 6 8 -5 8 -8 0 -14 -9 -5 -7 -11 5 -21 15 -12 17 -12 9 0 -6 10 -4 12 4 7 7 -5 10 -14 7 -22 -3 -7 0 -16 6 -20 7 -5 8 -2 4 7 -4 8 0 5 8 -5 15 -19 16 -18 16 15 0 26 -3 31 -10 19 -8 -11 -10 -3 -8 30 l3 45 43 3 c23 2 42 1 42 -1 0 -3 -9 -24 -20 -48 -11 -24 -20 -59 -20 -77 0 -44 -25 -102 -44 -102 -24 0 -19 -37 6 -54 30 -21 62 -20 79 2 13 16 13 16 -6 2 -11 -8 -2 4 20 28 38 40 52 76 34 88 -19 11 -8 61 19 87 30 28 106 66 137 68 11 0 14 3 8 6 -7 2 -13 13 -13 23 0 18 -11 19 -145 22 -80 2 -145 0 -145 -4 0 -5 63 -8 140 -8 87 0 140 -4 140 -10 0 -9 -111 -14 -218 -10 -24 1 -50 -4 -58 -10 -12 -10 -14 -7 -14 19 l0 31 -120 0 c-120 0 -121 0 -130 -26z"/>
 <path d="M343 893 c43 -2 110 -2 150 0 40 1 5 3 -78 3 -82 0 -115 -2 -72 -3z"/>
 <path d="M1173 893 c9 -2 14 -9 11 -15 -4 -7 -2 -8 4 -4 20 12 13 26 -10 25 -18 -1 -19 -2 -5 -6z"/>
 <path d="M1106 790 c-54 -55 -57 -60 -34 -60 14 0 52 -13 84 -30 65 -33 74 -35 74 -19 0 5 -4 8 -9 5 -4 -3 -6 6 -3 19 2 14 0 25 -7 25 -5 0 -8 7 -5 15 4 8 1 15 -6 15 -6 0 -8 5 -5 10 3 6 2 10 -4 10 -6 0 -8 7 -5 15 4 8 -1 17 -9 21 -9 3 -13 12 -10 20 8 22 2 17 -61 -46z"/>
 <path d="M674 625 c0 -110 2 -156 3 -103 2 53 2 143 0 200 -1 57 -3 13 -3 -97z"/>
 <path d="M810 615 c0 -58 -4 -77 -15 -81 -8 -4 -13 -10 -10 -14 3 -4 -2 -10 -10 -14 -8 -3 -15 -13 -15 -21 0 -15 1 -15 16 -1 24 25 32 19 35 -28 2 -25 0 -42 -5 -38 -5 3 -7 -2 -3 -11 3 -9 1 -17 -5 -19 -7 -3 -5 -15 6 -36 17 -32 33 -45 22 -17 -3 8 -1 15 5 15 7 0 8 28 4 83 -6 68 -5 80 6 70 18 -18 49 -16 49 2 0 22 -38 39 -56 24 -18 -15 -31 -4 -16 14 12 14 12 147 0 147 -5 0 -8 -34 -8 -75z"/>
 <path d="M537 262 c-10 -11 -17 -40 -19 -77 -2 -43 -7 -59 -16 -57 -8 1 -11 -2 -8 -7 4 -5 -4 -11 -16 -13 -13 -2 9 -4 47 -5 58 0 62 1 25 6 -28 4 -40 9 -32 14 7 5 12 30 12 64 0 38 5 62 17 75 9 10 14 18 11 18 -3 0 -12 -8 -21 -18z"/>
 <path d="M577 253 c-10 -9 -9 -133 1 -133 4 0 5 30 4 66 l-4 67 26 -5 c14 -3 23 -1 20 3 -6 11 -38 12 -47 2z"/>
 <path d="M652 173 c-1 -33 2 -53 11 -56 6 -3 -1 -6 -16 -6 -19 -1 -26 3 -21 11 4 7 3 8 -4 4 -21 -13 -13 -26 16 -26 34 0 45 9 33 24 -5 6 -11 32 -14 56 l-4 45 -1 -52z"/>
 <path d="M814 159 c-4 -8 -3 -9 4 -5 8 5 12 -2 12 -18 0 -20 -4 -24 -17 -20 -13 4 -14 3 -5 -3 15 -11 189 -15 195 -5 3 4 0 16 -4 27 -9 18 -9 18 -5 -2 4 -20 0 -23 -32 -23 -28 0 -33 3 -24 12 7 7 12 16 12 22 0 5 -7 1 -15 -10 -13 -17 -16 -17 -26 -4 -9 13 -10 12 -5 -2 4 -15 -1 -18 -29 -18 -30 0 -35 3 -35 24 0 28 -15 42 -26 25z"/>
 <path d="M1223 133 c-12 -13 -19 -23 -14 -23 10 0 46 39 40 43 -2 2 -14 -7 -26 -20z"/>
 <path d="M424 122 c5 -8 -5 -13 -31 -14 l-38 -1 34 -4 c36 -5 61 9 40 22 -8 5 -10 4 -5 -3z"/>
 <path d="M283 103 c9 -2 25 -2 35 0 9 3 1 5 -18 5 -19 0 -27 -2 -17 -5z"/>
 </g>
<g id="layer105" fill="#427ab1" stroke="none">
 <path d="M525 2901 c20 -4 26 -9 18 -14 -8 -5 -13 -29 -13 -59 0 -28 3 -48 7 -44 4 3 6 26 4 50 -1 25 3 47 9 51 17 11 1 25 -28 24 -27 -1 -27 -1 3 -8z"/>
 <path d="M635 2901 c-3 -5 0 -13 6 -16 5 -4 9 -24 8 -46 -2 -21 0 -41 4 -45 4 -4 7 13 7 39 0 26 -5 49 -12 54 -8 5 6 10 37 14 l50 6 -47 1 c-26 1 -49 -2 -53 -7z"/>
 <path d="M937 2903 c-4 -3 -3 -11 3 -17 5 -7 11 -41 13 -76 l3 -65 2 73 c1 51 -2 72 -10 74 -7 0 10 4 37 8 l50 7 -46 1 c-25 1 -49 -1 -52 -5z"/>
 <path d="M1045 2820 c0 -26 3 -46 8 -43 4 2 7 22 7 43 0 21 -3 41 -7 43 -5 3 -8 -17 -8 -43z"/>
 <path d="M323 2805 c0 -33 2 -45 4 -27 2 18 2 45 0 60 -2 15 -4 0 -4 -33z"/>
 <path d="M443 2805 c0 -33 2 -45 4 -27 2 18 2 45 0 60 -2 15 -4 0 -4 -33z"/>
 <path d="M1235 2771 c-6 -5 -21 -11 -35 -14 l-25 -4 26 -2 c15 0 32 6 39 14 14 16 10 21 -5 6z"/>
 <path d="M702 2530 c0 -19 2 -27 5 -17 2 9 2 25 0 35 -3 9 -5 1 -5 -18z"/>
 <path d="M720 2521 c0 -32 -23 -57 -41 -45 -8 5 -9 3 -4 -6 6 -10 4 -12 -9 -7 -11 5 -15 3 -10 -5 5 -8 2 -9 -10 -5 -11 5 -15 3 -10 -5 5 -8 2 -9 -10 -5 -11 5 -15 3 -10 -5 5 -8 2 -9 -10 -5 -9 4 -15 3 -12 -2 3 -5 -1 -12 -10 -15 -21 -8 -26 -8 -21 2 7 10 -75 9 -90 -1 -7 -5 -18 -5 -25 -1 -7 5 -8 3 -3 -6 6 -9 2 -10 -15 -5 -17 5 -21 4 -15 -6 6 -9 4 -11 -8 -6 -9 3 -19 1 -23 -5 -4 -7 -3 -8 4 -4 7 4 12 3 12 -3 0 -5 -6 -12 -12 -15 -7 -3 2 -3 20 0 19 3 32 1 32 -5 0 -10 -25 -27 -45 -31 -5 -1 -12 -4 -15 -7 -3 -4 1 -3 8 1 6 4 12 5 12 1 0 -3 -12 -10 -27 -16 -26 -10 -27 -11 -9 -21 13 -7 20 -7 25 0 6 11 81 46 81 39 0 -6 -104 -71 -110 -70 -3 1 -6 -7 -6 -17 0 -15 8 -13 64 16 81 43 126 47 61 6 -45 -29 -102 -82 -96 -89 2 -2 28 8 58 21 45 19 123 46 242 82 12 4 6 -11 -23 -52 -22 -31 -40 -61 -40 -66 0 -4 25 12 55 37 30 24 72 54 93 66 53 31 72 61 85 135 6 35 14 64 17 64 3 0 4 20 2 45 l-4 45 -74 0 -74 0 0 -29z m-224 -140 c-8 -12 -46 -21 -46 -11 0 5 8 11 18 13 29 8 33 7 28 -2z"/>
 <path d="M840 2315 c-18 -21 -6 -29 27 -18 27 9 28 10 7 21 -18 9 -24 9 -34 -3z"/>
 <path d="M883 2280 c-22 -9 -22 -9 14 -70 l36 -60 41 24 c58 34 57 40 -2 89 -35 28 -52 32 -89 17z"/>
 <path d="M1030 2245 c19 -19 36 -35 39 -35 3 0 -10 16 -29 35 -19 19 -36 35 -39 35 -3 0 10 -16 29 -35z"/>
 <path d="M620 2246 c-50 -16 -58 -23 -80 -66 l-19 -38 31 -11 c18 -6 56 -14 85 -18 l53 -6 0 43 0 44 -28 -27 c-29 -28 -47 -34 -56 -19 -3 5 11 32 30 60 19 29 31 52 27 51 -5 -1 -24 -6 -43 -13z"/>
 <path d="M785 2253 c-11 -3 -32 -14 -47 -25 -24 -17 -28 -26 -28 -69 l0 -49 48 0 c50 0 152 26 152 38 -1 10 -21 42 -49 80 -24 31 -35 35 -76 25z"/>
 <path d="M475 2196 l-50 -22 34 -12 c19 -7 35 -12 37 -12 6 0 36 62 32 65 -2 2 -26 -6 -53 -19z"/>
 <path d="M990 2152 l-46 -27 12 -40 c7 -22 13 -61 13 -87 l1 -48 80 0 81 0 -6 38 c-14 82 -62 193 -82 191 -5 0 -28 -12 -53 -27z"/>
 <path d="M370 2151 c-28 -8 -62 -81 -75 -158 l-7 -43 80 0 80 0 7 46 c3 25 13 64 21 86 8 23 13 42 12 42 -45 21 -80 36 -86 35 -4 -1 -18 -4 -32 -8z"/>
 <path d="M875 2105 c-23 -7 -69 -16 -103 -20 l-62 -7 0 -64 0 -64 120 0 120 0 0 30 c0 37 -19 129 -28 133 -4 2 -25 -2 -47 -8z"/>
 <path d="M499 2084 c-8 -23 -29 -115 -29 -130 0 -2 50 -4 110 -4 l110 0 0 64 0 64 -62 11 c-35 7 -75 14 -90 18 -24 4 -29 1 -39 -23z"/>
 <path d="M295 1873 c9 -58 41 -147 59 -162 11 -9 27 -6 68 15 l54 26 -13 51 c-7 28 -13 66 -13 84 l0 33 -81 0 -81 0 7 -47z"/>
 <path d="M470 1898 c0 -22 16 -99 25 -125 3 -9 12 -10 33 -2 16 5 58 13 93 17 l64 7 3 63 3 62 -111 0 c-107 0 -110 -1 -110 -22z"/>
 <path d="M717 1913 c-13 -12 -8 -113 6 -117 6 -2 41 -8 77 -14 36 -6 75 -14 86 -17 19 -6 24 0 37 42 9 26 19 63 22 81 l7 32 -115 0 c-62 0 -117 -3 -120 -7z"/>
 <path d="M957 1847 c-10 -39 -19 -77 -20 -84 -1 -6 24 -25 56 -41 l58 -29 26 51 c28 54 56 154 47 168 -3 4 -38 8 -77 8 l-72 0 -18 -73z"/>
 <path d="M570 1758 c-25 -5 -49 -14 -54 -18 -9 -9 32 -88 58 -109 10 -9 29 -11 56 -6 40 7 40 7 40 50 0 24 5 47 10 50 6 3 10 15 10 26 0 16 -7 19 -37 18 -21 -1 -58 -6 -83 -11z"/>
 <path d="M710 1751 c0 -11 5 -23 10 -26 6 -3 10 -26 10 -50 0 -30 5 -45 16 -49 29 -11 67 -6 81 12 37 46 64 95 56 102 -9 9 -114 30 -150 30 -16 0 -23 -6 -23 -19z"/>
 <path d="M438 1710 c-52 -28 -54 -37 -17 -76 40 -41 69 -51 108 -34 l29 11 -34 51 c-19 27 -34 54 -34 59 0 13 -10 11 -52 -11z"/>
 <path d="M880 1677 c-19 -28 -36 -55 -38 -59 -2 -4 14 -14 35 -23 45 -19 62 -12 118 44 l36 37 -55 27 c-30 15 -56 27 -58 27 -2 0 -19 -24 -38 -53z"/>
 <path d="M1025 1628 l-40 -43 43 40 c39 36 47 45 39 45 -2 0 -21 -19 -42 -42z"/>
 <path d="M385 1620 c21 -22 41 -40 44 -40 3 0 -13 18 -34 40 -21 22 -41 40 -44 40 -3 0 13 -18 34 -40z"/>
 <path d="M620 1592 c0 -10 33 -42 43 -42 4 0 7 11 7 25 0 20 -5 25 -25 25 -14 0 -25 -4 -25 -8z"/>
 <path d="M730 1568 l0 -31 25 23 c14 13 25 27 25 32 0 4 -11 8 -25 8 -21 0 -25 -5 -25 -32z"/>
 <path d="M535 1576 c-17 -12 -14 -14 30 -30 72 -24 84 -21 50 14 -32 33 -52 37 -80 16z"/>
 <path d="M781 1556 l-34 -35 55 13 c78 18 87 26 48 42 -18 8 -33 14 -34 14 -1 0 -17 -15 -35 -34z"/>
 <path d="M639 1494 c17 -3 32 -12 34 -20 3 -9 4 -8 3 3 -1 13 -11 19 -34 21 -31 2 -31 2 -3 -4z"/>
 <path d="M710 1250 c0 -66 2 -120 4 -120 9 0 65 61 100 109 21 28 51 62 68 76 17 14 28 28 25 32 -13 12 -58 -29 -114 -104 l-58 -78 -3 103 c-4 144 -22 130 -22 -18z"/>
 <path d="M680 1250 c0 -80 -3 -100 -14 -100 -8 0 -18 -5 -22 -11 -4 -6 1 -9 12 -8 11 2 25 0 32 -4 9 -6 12 17 12 107 0 71 -4 116 -10 116 -6 0 -10 -40 -10 -100z"/>
 <path d="M503 1243 c15 -2 37 -2 50 0 12 2 0 4 -28 4 -27 0 -38 -2 -22 -4z"/>
 <path d="M575 1230 l-30 -8 27 -1 c15 0 30 4 33 9 3 6 5 9 3 9 -2 -1 -16 -5 -33 -9z"/>
 <path d="M580 914 c-6 -14 -10 -33 -10 -42 0 -15 -2 -15 -10 -2 -7 11 -8 5 -4 -20 5 -28 3 -32 -6 -20 -10 13 -11 12 -5 -5 4 -11 8 -26 8 -32 0 -9 4 -10 13 -2 7 6 11 16 8 23 -3 7 2 18 9 25 12 9 16 8 21 -5 3 -9 3 -21 -1 -26 -4 -7 -1 -8 7 -3 9 5 10 2 6 -13 -4 -11 -2 -23 3 -27 7 -3 8 0 5 10 -4 10 -2 15 6 13 7 -2 14 7 15 20 4 44 22 47 42 7 l20 -37 13 31 c7 17 17 31 22 31 6 0 5 -7 -2 -15 -11 -13 -10 -14 4 -9 12 5 15 2 10 -9 -4 -11 0 -15 15 -14 11 1 20 8 19 17 -1 8 0 24 0 34 2 20 2 20 17 0 20 -26 19 -39 -2 -23 -16 13 -17 12 -4 -3 7 -10 18 -15 23 -12 5 3 8 -1 6 -9 -2 -9 1 -16 6 -15 5 0 13 -6 17 -14 6 -8 9 -1 8 22 0 31 -1 32 -9 13 -5 -13 -12 -23 -15 -23 -4 0 -3 5 0 10 3 6 3 42 -1 80 l-7 70 -119 0 c-118 0 -119 0 -128 -26z"/>
 <path d="M847 928 c2 -5 65 -8 139 -8 100 0 134 -3 134 -12 0 -10 -34 -13 -137 -12 -76 0 -120 -1 -98 -3 37 -4 76 -23 46 -23 -7 0 -9 -4 -6 -10 3 -5 1 -10 -5 -10 -6 0 -8 -4 -5 -10 3 -5 2 -10 -3 -10 -6 0 -8 -10 -4 -22 3 -15 2 -19 -7 -14 -8 6 -10 -3 -5 -33 5 -29 3 -41 -6 -41 -6 0 -10 -6 -8 -12 3 -7 -1 -19 -9 -26 -7 -8 -10 -18 -7 -24 4 -6 -1 -8 -13 -4 -17 5 -20 2 -19 -16 1 -13 7 -22 15 -20 7 1 10 -2 6 -7 -8 -15 45 -26 64 -14 9 6 16 17 16 26 0 8 12 24 26 36 27 21 30 42 11 79 -21 38 15 81 106 126 36 18 52 32 52 46 0 18 -9 19 -144 22 -79 2 -142 0 -139 -4z"/>
 <path d="M343 923 c42 -2 112 -2 155 0 42 1 7 3 -78 3 -85 0 -120 -2 -77 -3z"/>
 <path d="M343 893 c43 -2 110 -2 150 0 40 1 5 3 -78 3 -82 0 -115 -2 -72 -3z"/>
 <path d="M1110 793 l-55 -56 45 -14 c25 -8 51 -15 58 -15 6 -1 12 -5 12 -10 0 -5 4 -7 9 -4 5 3 11 -1 15 -9 3 -8 12 -15 21 -15 17 0 20 16 5 25 -5 3 -7 12 -3 20 3 8 0 15 -7 15 -7 0 -10 7 -6 16 4 10 2 13 -6 8 -8 -5 -9 -2 -5 10 4 9 3 15 -2 12 -5 -3 -12 1 -15 10 -9 22 -8 26 6 18 7 -4 8 -3 4 5 -4 6 -12 8 -18 5 -6 -4 -8 1 -3 15 3 11 5 21 3 21 -2 0 -28 -26 -58 -57z"/>
 <path d="M808 611 c-2 -63 0 -77 10 -69 13 11 13 148 0 148 -3 0 -8 -36 -10 -79z"/>
 <path d="M673 595 c0 -38 2 -53 4 -32 2 20 2 52 0 70 -2 17 -4 1 -4 -38z"/>
 <path d="M842 528 c-15 -15 3 -38 29 -38 21 0 26 25 7 36 -7 5 -9 2 -4 -7 4 -8 1 -6 -7 3 -10 13 -17 14 -25 6z"/>
 <path d="M784 500 c0 -16 3 -27 8 -24 5 3 6 9 3 14 -3 5 -1 12 5 15 8 5 10 -19 8 -74 -3 -67 -1 -81 12 -81 11 0 15 10 15 35 0 26 -4 34 -14 30 -11 -4 -11 -3 -2 9 20 23 10 87 -15 96 -18 7 -20 4 -20 -20z"/>
 <path d="M525 248 c-7 -23 -10 -127 -3 -120 6 7 16 132 10 132 -1 0 -5 -6 -7 -12z"/>
 <path d="M577 253 c-10 -9 -9 -133 1 -133 4 0 5 30 4 66 l-4 67 26 -5 c14 -3 23 -1 20 3 -6 11 -38 12 -47 2z"/>
 <path d="M652 173 c-1 -36 2 -53 11 -54 6 -1 -4 -5 -23 -9 l-35 -7 31 -2 c35 -1 48 7 35 23 -5 6 -11 32 -14 56 l-4 45 -1 -52z"/>
 <path d="M829 134 c-5 -30 -4 -31 37 -33 46 -2 59 7 42 29 -8 12 -9 12 -4 -2 4 -15 -1 -18 -29 -18 -29 0 -34 4 -37 28 l-3 27 -6 -31z"/>
 <path d="M994 133 c4 -20 0 -23 -32 -25 l-37 -1 34 -4 c40 -5 52 5 40 32 -9 18 -9 18 -5 -2z"/>
 <path d="M424 122 c5 -8 -5 -13 -31 -14 l-38 -1 34 -4 c36 -5 61 9 40 22 -8 5 -10 4 -5 -3z"/>
 <path d="M283 103 c9 -2 25 -2 35 0 9 3 1 5 -18 5 -19 0 -27 -2 -17 -5z"/>
 <path d="M528 103 c12 -2 32 -2 45 0 12 2 2 4 -23 4 -25 0 -35 -2 -22 -4z"/>
 </g>
<g id="layer106" fill="#82817e" stroke="none">
 <path d="M525 2901 c20 -4 26 -9 18 -14 -8 -5 -13 -29 -13 -59 0 -28 3 -48 7 -44 4 3 6 26 4 50 -1 25 3 47 9 51 17 11 1 25 -28 24 -27 -1 -27 -1 3 -8z"/>
 <path d="M635 2901 c-3 -5 0 -13 6 -16 5 -4 9 -24 8 -46 -2 -21 0 -41 4 -45 4 -4 7 13 7 39 0 26 -5 49 -12 54 -8 5 6 10 37 14 l50 6 -47 1 c-26 1 -49 -2 -53 -7z"/>
 <path d="M937 2903 c-4 -3 -3 -11 3 -17 5 -7 11 -41 13 -76 l3 -65 2 73 c1 51 -2 72 -10 74 -7 0 10 4 37 8 l50 7 -46 1 c-25 1 -49 -1 -52 -5z"/>
 <path d="M1045 2820 c0 -26 3 -46 8 -43 4 2 7 22 7 43 0 21 -3 41 -7 43 -5 3 -8 -17 -8 -43z"/>
 <path d="M323 2805 c0 -33 2 -45 4 -27 2 18 2 45 0 60 -2 15 -4 0 -4 -33z"/>
 <path d="M443 2805 c0 -33 2 -45 4 -27 2 18 2 45 0 60 -2 15 -4 0 -4 -33z"/>
 <path d="M1235 2771 c-6 -5 -21 -11 -35 -14 l-25 -4 26 -2 c15 0 32 6 39 14 14 16 10 21 -5 6z"/>
 <path d="M702 2530 c0 -19 2 -27 5 -17 2 9 2 25 0 35 -3 9 -5 1 -5 -18z"/>
 <path d="M720 2521 c0 -32 -23 -57 -41 -45 -8 5 -9 3 -4 -6 6 -10 4 -12 -9 -7 -11 5 -15 3 -10 -5 5 -8 2 -9 -10 -5 -11 5 -15 3 -10 -5 5 -8 2 -9 -10 -5 -11 5 -15 3 -10 -5 5 -8 2 -9 -10 -5 -9 4 -15 3 -12 -2 3 -5 -1 -12 -10 -15 -21 -8 -26 -8 -21 2 7 10 -75 9 -90 -1 -7 -5 -18 -5 -25 -1 -7 5 -8 3 -3 -6 6 -9 2 -10 -15 -5 -17 5 -21 4 -15 -6 6 -9 4 -11 -8 -6 -9 3 -19 1 -23 -5 -4 -7 -3 -8 4 -4 7 4 12 3 12 -3 0 -5 -6 -12 -12 -15 -7 -3 2 -3 20 0 19 3 32 1 32 -5 0 -10 -25 -27 -45 -31 -5 -1 -12 -4 -15 -7 -3 -4 1 -3 8 1 6 4 12 5 12 1 0 -3 -12 -10 -27 -16 -26 -10 -27 -11 -9 -21 13 -7 20 -7 25 0 6 11 81 46 81 39 0 -6 -104 -71 -110 -70 -3 1 -6 -7 -6 -17 0 -15 8 -13 64 16 81 43 126 47 61 6 -45 -29 -102 -82 -96 -89 2 -2 28 8 58 21 45 19 123 46 242 82 12 4 6 -11 -23 -52 -22 -31 -40 -61 -40 -66 0 -4 25 12 55 37 30 24 72 54 93 66 53 31 72 61 85 135 6 35 14 64 17 64 3 0 4 20 2 45 l-4 45 -74 0 -74 0 0 -29z m-224 -140 c-8 -12 -46 -21 -46 -11 0 5 8 11 18 13 29 8 33 7 28 -2z"/>
 <path d="M1030 2245 c19 -19 36 -35 39 -35 3 0 -10 16 -29 35 -19 19 -36 35 -39 35 -3 0 10 -16 29 -35z"/>
 <path d="M1025 1628 l-40 -43 43 40 c39 36 47 45 39 45 -2 0 -21 -19 -42 -42z"/>
 <path d="M385 1620 c21 -22 41 -40 44 -40 3 0 -13 18 -34 40 -21 22 -41 40 -44 40 -3 0 13 -18 34 -40z"/>
 <path d="M639 1494 c17 -3 32 -12 34 -20 3 -9 4 -8 3 3 -1 13 -11 19 -34 21 -31 2 -31 2 -3 -4z"/>
 <path d="M710 1250 c0 -66 2 -120 4 -120 9 0 65 61 100 109 21 28 51 62 68 76 17 14 28 28 25 32 -13 12 -58 -29 -114 -104 l-58 -78 -3 103 c-4 144 -22 130 -22 -18z"/>
 <path d="M680 1250 c0 -80 -3 -100 -14 -100 -8 0 -18 -5 -22 -11 -4 -6 1 -9 12 -8 11 2 25 0 32 -4 9 -6 12 17 12 107 0 71 -4 116 -10 116 -6 0 -10 -40 -10 -100z"/>
 <path d="M503 1243 c15 -2 37 -2 50 0 12 2 0 4 -28 4 -27 0 -38 -2 -22 -4z"/>
 <path d="M575 1230 l-30 -8 27 -1 c15 0 30 4 33 9 3 6 5 9 3 9 -2 -1 -16 -5 -33 -9z"/>
 <path d="M580 914 c-6 -14 -10 -33 -10 -42 0 -15 -2 -15 -10 -2 -7 11 -8 5 -4 -20 5 -28 3 -32 -6 -20 -10 13 -11 12 -5 -5 4 -11 8 -26 8 -32 0 -9 4 -10 13 -2 7 6 11 16 8 23 -3 7 2 18 9 25 12 9 16 8 21 -5 3 -9 3 -21 -1 -26 -4 -7 -1 -8 7 -3 9 5 10 2 6 -13 -4 -11 -2 -23 3 -27 7 -3 8 0 5 10 -4 10 -2 15 6 13 7 -2 14 7 15 20 4 44 22 47 42 7 l20 -37 13 31 c7 17 17 31 22 31 6 0 5 -7 -2 -15 -11 -13 -10 -14 4 -9 12 5 15 2 10 -9 -4 -11 0 -15 15 -14 11 1 20 8 19 17 -1 8 0 24 0 34 2 20 2 20 17 0 20 -26 19 -39 -2 -23 -16 13 -17 12 -4 -3 7 -10 18 -15 23 -12 5 3 8 -1 6 -9 -2 -9 1 -16 6 -15 5 0 13 -6 17 -14 6 -8 9 -1 8 22 0 31 -1 32 -9 13 -5 -13 -12 -23 -15 -23 -4 0 -3 5 0 10 3 6 3 42 -1 80 l-7 70 -119 0 c-118 0 -119 0 -128 -26z"/>
 <path d="M847 928 c2 -5 65 -8 139 -8 100 0 134 -3 134 -12 0 -10 -34 -13 -137 -12 -76 0 -120 -1 -98 -3 37 -4 76 -23 46 -23 -7 0 -9 -4 -6 -10 3 -5 1 -10 -5 -10 -6 0 -8 -4 -5 -10 3 -5 2 -10 -3 -10 -6 0 -8 -10 -4 -22 3 -15 2 -19 -7 -14 -8 6 -10 -3 -5 -33 5 -29 3 -41 -6 -41 -6 0 -10 -6 -8 -12 3 -7 -1 -19 -9 -26 -7 -8 -10 -18 -7 -24 4 -6 -1 -8 -13 -4 -17 5 -20 2 -19 -16 1 -13 7 -22 15 -20 7 1 10 -2 6 -7 -8 -15 45 -26 64 -14 9 6 16 17 16 26 0 8 12 24 26 36 27 21 30 42 11 79 -21 38 15 81 106 126 36 18 52 32 52 46 0 18 -9 19 -144 22 -79 2 -142 0 -139 -4z"/>
 <path d="M343 923 c42 -2 112 -2 155 0 42 1 7 3 -78 3 -85 0 -120 -2 -77 -3z"/>
 <path d="M343 893 c43 -2 110 -2 150 0 40 1 5 3 -78 3 -82 0 -115 -2 -72 -3z"/>
 <path d="M1110 793 l-55 -56 45 -14 c25 -8 51 -15 58 -15 6 -1 12 -5 12 -10 0 -5 4 -7 9 -4 5 3 11 -1 15 -9 3 -8 12 -15 21 -15 17 0 20 16 5 25 -5 3 -7 12 -3 20 3 8 0 15 -7 15 -7 0 -10 7 -6 16 4 10 2 13 -6 8 -8 -5 -9 -2 -5 10 4 9 3 15 -2 12 -5 -3 -12 1 -15 10 -9 22 -8 26 6 18 7 -4 8 -3 4 5 -4 6 -12 8 -18 5 -6 -4 -8 1 -3 15 3 11 5 21 3 21 -2 0 -28 -26 -58 -57z"/>
 <path d="M808 611 c-2 -63 0 -77 10 -69 13 11 13 148 0 148 -3 0 -8 -36 -10 -79z"/>
 <path d="M673 595 c0 -38 2 -53 4 -32 2 20 2 52 0 70 -2 17 -4 1 -4 -38z"/>
 <path d="M842 528 c-15 -15 3 -38 29 -38 21 0 26 25 7 36 -7 5 -9 2 -4 -7 4 -8 1 -6 -7 3 -10 13 -17 14 -25 6z"/>
 <path d="M784 500 c0 -16 3 -27 8 -24 5 3 6 9 3 14 -3 5 -1 12 5 15 8 5 10 -19 8 -74 -3 -67 -1 -81 12 -81 11 0 15 10 15 35 0 26 -4 34 -14 30 -11 -4 -11 -3 -2 9 20 23 10 87 -15 96 -18 7 -20 4 -20 -20z"/>
 <path d="M525 248 c-7 -23 -10 -127 -3 -120 6 7 16 132 10 132 -1 0 -5 -6 -7 -12z"/>
 <path d="M577 253 c-10 -9 -9 -133 1 -133 4 0 5 30 4 66 l-4 67 26 -5 c14 -3 23 -1 20 3 -6 11 -38 12 -47 2z"/>
 <path d="M652 173 c-1 -36 2 -53 11 -54 6 -1 -4 -5 -23 -9 l-35 -7 31 -2 c35 -1 48 7 35 23 -5 6 -11 32 -14 56 l-4 45 -1 -52z"/>
 <path d="M829 134 c-5 -30 -4 -31 37 -33 46 -2 59 7 42 29 -8 12 -9 12 -4 -2 4 -15 -1 -18 -29 -18 -29 0 -34 4 -37 28 l-3 27 -6 -31z"/>
 <path d="M994 133 c4 -20 0 -23 -32 -25 l-37 -1 34 -4 c40 -5 52 5 40 32 -9 18 -9 18 -5 -2z"/>
 <path d="M424 122 c5 -8 -5 -13 -31 -14 l-38 -1 34 -4 c36 -5 61 9 40 22 -8 5 -10 4 -5 -3z"/>
 <path d="M283 103 c9 -2 25 -2 35 0 9 3 1 5 -18 5 -19 0 -27 -2 -17 -5z"/>
 <path d="M528 103 c12 -2 32 -2 45 0 12 2 2 4 -23 4 -25 0 -35 -2 -22 -4z"/>
 </g>
<g id="layer107" fill="#bbbbb7" stroke="none">
 <path d="M635 2901 c-3 -5 0 -13 6 -16 5 -4 9 -24 8 -46 -2 -21 0 -41 4 -45 4 -4 7 13 7 39 0 26 -5 49 -12 54 -8 5 6 10 37 14 l50 6 -47 1 c-26 1 -49 -2 -53 -7z"/>
 <path d="M935 2901 c-3 -5 -1 -12 5 -16 5 -3 11 -36 12 -73 l2 -67 3 63 c3 38 -1 69 -7 77 -9 11 -2 15 37 18 l48 3 -47 2 c-26 1 -49 -2 -53 -7z"/>
 <path d="M537 2883 c-4 -3 -7 -27 -7 -51 0 -58 12 -47 14 13 0 25 1 45 0 45 0 0 -4 -3 -7 -7z"/>
 <path d="M323 2805 c0 -33 2 -45 4 -27 2 18 2 45 0 60 -2 15 -4 0 -4 -33z"/>
 <path d="M443 2805 c0 -27 2 -38 4 -22 2 15 2 37 0 50 -2 12 -4 0 -4 -28z"/>
 <path d="M702 2530 c0 -19 2 -27 5 -17 2 9 2 25 0 35 -3 9 -5 1 -5 -18z"/>
 <path d="M720 2521 c0 -32 -23 -57 -41 -45 -8 5 -9 3 -4 -6 6 -10 4 -12 -9 -7 -9 4 -15 3 -12 -1 3 -5 -15 -18 -39 -30 -37 -18 -52 -20 -90 -13 -24 5 -43 5 -40 1 2 -4 -15 -13 -38 -20 -35 -11 -39 -14 -22 -20 11 -4 28 -4 37 1 22 12 38 11 38 -1 0 -5 -9 -10 -19 -10 -11 0 -23 -5 -26 -11 -4 -6 -13 -8 -21 -5 -8 3 -13 0 -11 -7 1 -7 -7 -12 -18 -12 -11 0 -20 -5 -20 -10 0 -6 -4 -15 -8 -22 -4 -6 -2 -15 4 -19 7 -4 9 -3 5 4 -4 6 15 18 46 30 88 34 95 34 42 5 -59 -33 -82 -50 -109 -82 -17 -20 -10 -18 47 14 38 21 77 35 90 33 21 -3 19 -5 -13 -21 -34 -17 -121 -97 -106 -97 4 0 26 9 49 21 40 20 240 89 259 89 6 0 -8 -25 -30 -57 -52 -71 -52 -85 -2 -40 21 19 64 51 94 71 31 19 63 45 71 58 16 25 46 160 46 208 l0 30 -75 0 -75 0 0 -29z"/>
 <path d="M1030 2245 c19 -19 36 -35 39 -35 3 0 -10 16 -29 35 -19 19 -36 35 -39 35 -3 0 10 -16 29 -35z"/>
 <path d="M710 1243 l0 -118 48 52 c97 107 154 173 147 173 -21 0 -52 -29 -100 -95 -30 -40 -59 -77 -65 -80 -6 -4 -10 28 -10 89 0 57 -4 96 -10 96 -6 0 -10 -46 -10 -117z"/>
 <path d="M680 1250 c0 -80 -3 -100 -14 -100 -8 0 -17 -4 -20 -8 -3 -5 7 -9 22 -9 l28 0 2 109 c1 68 -1 108 -8 108 -6 0 -10 -39 -10 -100z"/>
 <path d="M575 888 c-20 -67 -19 -75 5 -53 19 17 20 17 33 -14 l14 -33 13 31 c19 47 28 47 49 -1 19 -43 19 -43 26 -16 10 39 32 55 40 29 3 -12 3 -26 -1 -32 -4 -8 -3 -9 5 -5 6 4 17 22 25 39 l13 32 17 -33 c9 -18 14 -38 10 -45 -5 -8 -4 -9 4 -2 7 7 9 34 4 80 l-7 70 -117 3 -117 3 -16 -53z"/>
 <path d="M343 893 c43 -2 110 -2 150 0 40 1 5 3 -78 3 -82 0 -115 -2 -72 -3z"/>
 <path d="M868 893 c12 -2 32 -2 45 0 12 2 2 4 -23 4 -25 0 -35 -2 -22 -4z"/>
 <path d="M940 882 c-8 -10 -16 -25 -18 -33 -2 -7 -7 -16 -10 -19 -4 -3 -7 -15 -8 -27 -2 -74 -5 -94 -13 -89 -5 4 -7 -4 -3 -16 3 -13 1 -19 -5 -15 -6 4 -10 -1 -9 -11 0 -10 -6 -16 -16 -16 -10 1 -16 -2 -13 -6 3 -5 -1 -10 -7 -13 -10 -3 -10 -7 0 -20 8 -9 20 -13 29 -10 9 4 14 2 10 -3 -6 -11 33 -11 51 0 7 4 10 12 7 17 -8 12 22 54 38 54 17 0 15 36 -3 58 -13 16 -12 22 5 55 15 27 36 45 83 67 34 17 59 34 56 38 -4 4 -42 7 -83 7 -62 0 -79 -3 -91 -18z"/>
 <path d="M1106 786 c-35 -38 -37 -41 -17 -44 12 -2 19 -8 16 -13 -3 -5 1 -6 9 -3 9 3 16 1 16 -6 0 -6 4 -9 9 -6 12 8 42 -4 37 -13 -3 -4 4 -7 14 -8 10 -1 20 7 23 18 3 12 1 17 -6 12 -6 -4 -8 2 -5 15 4 12 3 20 -2 17 -4 -2 -15 13 -25 35 -10 22 -21 39 -24 39 -3 -1 -23 -20 -45 -43z"/>
 <path d="M852 790 c0 -19 2 -27 5 -17 2 9 2 25 0 35 -3 9 -5 1 -5 -18z"/>
 <path d="M810 588 c-3 -31 -1 -53 3 -49 5 5 7 30 5 57 l-3 49 -5 -57z"/>
 <path d="M842 528 c-18 -18 5 -40 29 -27 23 12 16 31 -8 22 -11 -4 -14 -3 -9 5 9 15 3 15 -12 0z"/>
 <path d="M784 500 c0 -32 8 -32 13 0 1 10 -1 21 -5 24 -5 3 -8 -8 -8 -24z"/>
 <path d="M810 463 c-3 -29 -1 -48 3 -44 5 5 7 28 5 52 l-3 44 -5 -52z"/>
 <path d="M822 408 c-14 -14 -16 -58 -3 -58 5 0 11 16 13 35 2 19 4 35 3 35 -1 0 -6 -5 -13 -12z"/>
 <path d="M571 188 c0 -31 2 -59 7 -61 4 -3 6 16 4 41 -5 73 -10 82 -11 20z"/>
 <path d="M652 180 c-1 -26 3 -51 10 -58 9 -9 4 -12 -22 -13 -25 -1 -28 -3 -12 -6 34 -7 57 4 44 20 -6 7 -12 33 -15 57 l-4 45 -1 -45z"/>
 <path d="M829 134 c-5 -30 -4 -31 37 -33 23 -1 45 2 47 6 3 5 -12 7 -33 5 -36 -4 -39 -2 -42 25 l-3 28 -6 -31z"/>
 <path d="M424 122 c5 -8 -5 -13 -31 -14 l-38 -1 34 -4 c36 -5 61 9 40 22 -8 5 -10 4 -5 -3z"/>
 <path d="M283 103 c9 -2 25 -2 35 0 9 3 1 5 -18 5 -19 0 -27 -2 -17 -5z"/>
 <path d="M528 103 c12 -2 32 -2 45 0 12 2 2 4 -23 4 -25 0 -35 -2 -22 -4z"/>
 <path d="M948 103 c12 -2 30 -2 40 0 9 3 -1 5 -23 4 -22 0 -30 -2 -17 -4z"/>
 </g>
<g id="layer108" fill="#fafafa" stroke="none">
 <path d="M720 2516 c0 -31 -4 -36 -69 -70 -55 -29 -80 -36 -124 -36 -73 0 -107 -13 -52 -20 l40 -5 -45 -23 c-25 -12 -56 -31 -70 -42 -24 -20 -23 -20 30 1 69 27 90 33 90 25 0 -3 -24 -17 -54 -32 -30 -15 -67 -40 -83 -56 l-28 -29 68 36 c38 19 75 35 83 35 26 0 14 -18 -28 -43 -24 -14 -56 -39 -73 -57 l-30 -31 67 30 c83 37 246 87 255 78 3 -4 -3 -17 -14 -30 -11 -12 -29 -35 -39 -52 l-19 -30 37 28 c21 15 64 45 96 67 65 43 74 59 97 168 26 125 27 122 -60 122 l-75 0 0 -34z"/>
 <path d="M838 1289 c-24 -28 -60 -69 -80 -91 -21 -22 -38 -45 -38 -50 0 -6 19 11 43 37 23 26 64 72 91 101 27 30 44 54 38 54 -6 0 -30 -23 -54 -51z"/>
 <path d="M935 859 c-9 -17 -23 -65 -31 -107 -11 -58 -20 -82 -39 -99 -25 -22 -20 -38 9 -27 9 3 16 1 16 -5 0 -22 18 -10 55 35 32 39 37 49 27 65 -30 48 3 98 92 140 l61 29 -87 0 -87 0 -16 -31z"/>
 <path d="M1105 780 c-36 -37 -37 -40 -16 -40 13 0 45 -11 73 -25 48 -24 49 -24 43 -4 -14 43 -46 109 -53 109 -5 0 -26 -18 -47 -40z"/>
 <path d="M810 380 c0 -11 5 -20 10 -20 6 0 10 9 10 20 0 11 -4 20 -10 20 -5 0 -10 -9 -10 -20z"/>
 </g>

</svg>